<svg width="138" height="138" viewBox="0 0 138 138" fill="none" xmlns="http://www.w3.org/2000/svg">
<path d="M67.045 119V20H73.4358V119H67.045ZM82.4377 53.6445C82.1779 50.8086 81.0218 48.6043 78.9694 47.0316C76.943 45.4332 74.0464 44.634 70.2794 44.634C67.7854 44.634 65.707 44.9563 64.0444 45.6008C62.3817 46.2453 61.1347 47.1348 60.3034 48.2691C59.472 49.3777 59.0434 50.6539 59.0174 52.0977C58.9654 53.2836 59.1992 54.3277 59.7188 55.2301C60.2644 56.1324 61.0438 56.9316 62.057 57.6277C63.0961 58.298 64.3431 58.891 65.798 59.4066C67.2528 59.9223 68.8895 60.3734 70.708 60.7602L77.5665 62.307C81.5154 63.1578 84.9966 64.2922 88.0102 65.7102C91.0498 67.1281 93.5957 68.8168 95.6481 70.7762C97.7264 72.7355 99.2982 74.9914 100.363 77.5437C101.428 80.0961 101.974 82.9578 102 86.1289C101.974 91.1305 100.701 95.423 98.1811 99.0066C95.6611 102.59 92.037 105.336 87.3088 107.244C82.6065 109.152 76.9301 110.105 70.2794 110.105C63.6027 110.105 57.7834 109.113 52.8213 107.128C47.8593 105.143 44.0014 102.126 41.2476 98.0785C38.4938 94.0309 37.0779 88.9133 37 82.7258H55.4712C55.6271 85.2781 56.3155 87.4051 57.5366 89.1066C58.7576 90.8082 60.4333 92.0973 62.5635 92.9738C64.7198 93.8504 67.2138 94.2887 70.0456 94.2887C72.6435 94.2887 74.8517 93.9406 76.6703 93.2445C78.5148 92.5484 79.9307 91.5816 80.9179 90.3441C81.9051 89.1066 82.4117 87.6887 82.4377 86.0902C82.4117 84.5949 81.944 83.3187 81.0348 82.2617C80.1255 81.1789 78.7226 80.2508 76.8261 79.4773C74.9556 78.6781 72.5655 77.9434 69.6559 77.273L61.3165 75.3395C54.4061 73.7668 48.9634 71.2273 44.9886 67.7211C41.0138 64.1891 39.0394 59.4195 39.0653 53.4125C39.0394 48.5141 40.3643 44.2215 43.0402 40.5348C45.716 36.848 49.4181 33.9734 54.1463 31.9109C58.8745 29.8484 64.2652 28.8172 70.3183 28.8172C76.5014 28.8172 81.8661 29.8613 86.4125 31.9496C90.9848 34.0121 94.531 36.9125 97.051 40.6508C99.5709 44.3891 100.857 48.7203 100.909 53.6445H82.4377Z" fill="#56DF96"/>
<path fill-rule="evenodd" clip-rule="evenodd" d="M134.148 92.235C124.724 118.898 99.2958 138 69.4062 138C39.5167 138 14.0887 118.898 4.66489 92.235H20.9902C29.5701 110.357 48.0244 122.891 69.4062 122.891C90.7881 122.891 109.242 110.357 117.822 92.235H134.148ZM133.957 45.9379C124.385 19.5537 99.0965 0.705002 69.4062 0.705002C39.7159 0.705002 14.4279 19.5537 4.85546 45.9379H21.2458C29.9327 28.1034 48.2343 15.814 69.4062 15.814C90.5781 15.814 108.88 28.1034 117.567 45.9379H133.957Z" fill="#56DF96"/>
</svg>
