<svg width="138" height="138" viewBox="0 0 138 138" fill="none" xmlns="http://www.w3.org/2000/svg">
<circle cx="69" cy="69" r="58" stroke="#D3CBB5" stroke-width="10"/>
<path d="M65.2806 125V14H72.3597V125H65.2806ZM82.3309 51.7227C82.0432 48.543 80.7626 46.0715 78.4892 44.3082C76.2446 42.516 73.036 41.6199 68.8633 41.6199C66.1007 41.6199 63.7986 41.9813 61.9568 42.7039C60.1151 43.4266 58.7338 44.4238 57.8129 45.6957C56.8921 46.9387 56.4173 48.3695 56.3885 49.9883C56.3309 51.318 56.5899 52.4887 57.1655 53.5004C57.7698 54.5121 58.6331 55.4082 59.7554 56.1887C60.9065 56.9402 62.2878 57.6051 63.8993 58.1832C65.5108 58.7613 67.3237 59.2672 69.3381 59.7008L76.9352 61.4352C81.3094 62.3891 85.1655 63.6609 88.5036 65.2508C91.8705 66.8406 94.6906 68.734 96.964 70.9309C99.2662 73.1277 101.007 75.657 102.187 78.5188C103.367 81.3805 103.971 84.5891 104 88.1445C103.971 93.7523 102.561 98.5652 99.7698 102.583C96.9784 106.601 92.964 109.68 87.7266 111.819C82.518 113.958 76.2302 115.027 68.8633 115.027C61.4676 115.027 55.0216 113.914 49.5252 111.689C44.0288 109.463 39.7554 106.081 36.705 101.543C33.6547 97.0043 32.0863 91.2664 32 84.3289H52.4604C52.6331 87.1906 53.3957 89.5754 54.7482 91.4832C56.1007 93.391 57.9568 94.8363 60.3165 95.8191C62.705 96.802 65.4676 97.2934 68.6043 97.2934C71.482 97.2934 73.9281 96.9031 75.9424 96.1227C77.9856 95.3422 79.554 94.2582 80.6475 92.8707C81.741 91.4832 82.3022 89.8934 82.3309 88.1012C82.3022 86.4246 81.7842 84.9938 80.777 83.8086C79.7698 82.5945 78.2158 81.5539 76.1151 80.6867C74.0432 79.7906 71.3957 78.9668 68.1727 78.2152L58.9352 76.0473C51.2806 74.284 45.2518 71.4367 40.8489 67.5055C36.446 63.5453 34.259 58.1977 34.2878 51.4625C34.259 45.9703 35.7266 41.1574 38.6906 37.0238C41.6547 32.8902 45.7554 29.6672 50.9928 27.3547C56.2302 25.0422 62.2014 23.8859 68.9065 23.8859C75.7554 23.8859 81.6978 25.0566 86.7338 27.398C91.7986 29.7106 95.7266 32.9625 98.518 37.1539C101.309 41.3453 102.734 46.2016 102.791 51.7227H82.3309Z" fill="#DBD1B7"/>
</svg>
