<svg width="294" height="126" viewBox="0 0 294 126" fill="none" xmlns="http://www.w3.org/2000/svg">
<path d="M22.642 61V26.0909H46.4716V32.9432H31.0795V40.1023H44.9545V46.9716H31.0795V61H22.642ZM59.1577 26.0909V61H50.7202V26.0909H59.1577ZM94.1648 26.0909V61H87.0057L73.1136 40.8523H72.892V61H64.4545V26.0909H71.7159L85.4545 46.2045H85.7443V26.0909H94.1648ZM107.021 61H97.9531L109.732 26.0909H120.964L132.743 61H123.675L115.476 34.8864H115.203L107.021 61ZM105.811 47.2614H124.766V53.6705H105.811V47.2614ZM166.212 26.0909V61H159.053L145.161 40.8523H144.939V61H136.501V26.0909H143.763L157.501 46.2045H157.791V26.0909H166.212ZM203.205 38.7386H194.682C194.568 37.8636 194.335 37.0739 193.983 36.3693C193.631 35.6648 193.165 35.0625 192.585 34.5625C192.006 34.0625 191.318 33.6818 190.523 33.4205C189.739 33.1477 188.869 33.0114 187.915 33.0114C186.222 33.0114 184.761 33.4261 183.534 34.2557C182.318 35.0852 181.381 36.2841 180.722 37.8523C180.074 39.4205 179.75 41.3182 179.75 43.5455C179.75 45.8636 180.08 47.8068 180.739 49.375C181.409 50.9318 182.347 52.108 183.551 52.9034C184.767 53.6875 186.205 54.0795 187.864 54.0795C188.795 54.0795 189.642 53.9602 190.403 53.7216C191.176 53.483 191.852 53.1364 192.432 52.6818C193.023 52.2159 193.506 51.6534 193.881 50.9943C194.267 50.3239 194.534 49.5682 194.682 48.7273L203.205 48.7784C203.057 50.3239 202.608 51.8466 201.858 53.3466C201.119 54.8466 200.102 56.2159 198.807 57.4545C197.511 58.6818 195.932 59.6591 194.068 60.3864C192.216 61.1136 190.091 61.4773 187.693 61.4773C184.534 61.4773 181.705 60.7841 179.205 59.3977C176.716 58 174.75 55.9659 173.307 53.2955C171.864 50.625 171.142 47.375 171.142 43.5455C171.142 39.7045 171.875 36.4489 173.341 33.7784C174.807 31.108 176.79 29.0795 179.29 27.6932C181.79 26.3068 184.591 25.6136 187.693 25.6136C189.807 25.6136 191.761 25.9091 193.557 26.5C195.352 27.0795 196.932 27.9318 198.295 29.0568C199.659 30.1705 200.767 31.5398 201.619 33.1648C202.472 34.7898 203 36.6477 203.205 38.7386ZM208.033 61V26.0909H232.374V32.9432H216.47V40.1023H231.129V46.9716H216.47V54.1477H232.374V61H208.033Z" fill="#DBD1B7"/>
<path d="M245.864 43.5455V61H241.125V43.5455H245.864ZM263.212 43.5455V61H259.257L252.95 51.8295H252.848V61H248.109V43.5455H252.132L258.337 52.6818H258.473V43.5455H263.212Z" fill="#DBD1B7"/>
<path d="M22.642 99V64.0909H37.0625C39.6761 64.0909 41.9318 64.6023 43.8295 65.625C45.7386 66.6364 47.2102 68.0511 48.2443 69.8693C49.2784 71.6761 49.7955 73.7784 49.7955 76.1761C49.7955 78.5852 49.267 80.6932 48.2102 82.5C47.1648 84.2955 45.6705 85.6875 43.7273 86.6761C41.7841 87.6648 39.4773 88.1591 36.8068 88.1591H27.9091V81.5114H35.2386C36.5114 81.5114 37.5739 81.2898 38.4261 80.8466C39.2898 80.4034 39.9432 79.7841 40.3864 78.9886C40.8295 78.1818 41.0511 77.2443 41.0511 76.1761C41.0511 75.0966 40.8295 74.1648 40.3864 73.3807C39.9432 72.5852 39.2898 71.9716 38.4261 71.5398C37.5625 71.108 36.5 70.892 35.2386 70.892H31.0795V99H22.642ZM53.9545 99V64.0909H68.375C70.9886 64.0909 73.2443 64.5625 75.142 65.5057C77.0511 66.4375 78.5227 67.7784 79.5568 69.5284C80.5909 71.267 81.108 73.3295 81.108 75.7159C81.108 78.1364 80.5795 80.1932 79.5227 81.8864C78.4659 83.5682 76.9659 84.8523 75.0227 85.7386C73.0795 86.6136 70.7784 87.0511 68.1193 87.0511H59V80.4034H66.5511C67.8239 80.4034 68.8864 80.2386 69.7386 79.9091C70.6023 79.5682 71.2557 79.0568 71.6989 78.375C72.142 77.6818 72.3636 76.7955 72.3636 75.7159C72.3636 74.6364 72.142 73.7443 71.6989 73.0398C71.2557 72.3239 70.6023 71.7898 69.7386 71.4375C68.875 71.0739 67.8125 70.892 66.5511 70.892H62.392V99H53.9545ZM73.608 83.0455L82.3011 99H73.0966L64.5739 83.0455H73.608ZM93.2869 99H84.2188L95.9972 64.0909H107.23L119.009 99H109.94L101.741 72.8864H101.469L93.2869 99ZM92.0767 85.2614H111.031V91.6705H92.0767V85.2614ZM152.814 76.7386H144.291C144.178 75.8636 143.945 75.0739 143.592 74.3693C143.24 73.6648 142.774 73.0625 142.195 72.5625C141.615 72.0625 140.928 71.6818 140.132 71.4205C139.348 71.1477 138.479 71.0114 137.524 71.0114C135.831 71.0114 134.371 71.4261 133.143 72.2557C131.928 73.0852 130.99 74.2841 130.331 75.8523C129.683 77.4205 129.359 79.3182 129.359 81.5455C129.359 83.8636 129.689 85.8068 130.348 87.375C131.018 88.9318 131.956 90.108 133.161 90.9034C134.376 91.6875 135.814 92.0795 137.473 92.0795C138.405 92.0795 139.251 91.9602 140.013 91.7216C140.786 91.483 141.462 91.1364 142.041 90.6818C142.632 90.2159 143.115 89.6534 143.49 88.9943C143.876 88.3239 144.143 87.5682 144.291 86.7273L152.814 86.7784C152.666 88.3239 152.217 89.8466 151.467 91.3466C150.729 92.8466 149.712 94.2159 148.416 95.4545C147.121 96.6818 145.541 97.6591 143.678 98.3864C141.825 99.1136 139.7 99.4773 137.303 99.4773C134.143 99.4773 131.314 98.7841 128.814 97.3977C126.325 96 124.359 93.9659 122.916 91.2955C121.473 88.625 120.751 85.375 120.751 81.5455C120.751 77.7045 121.484 74.4489 122.95 71.7784C124.416 69.108 126.399 67.0795 128.899 65.6932C131.399 64.3068 134.2 63.6136 137.303 63.6136C139.416 63.6136 141.371 63.9091 143.166 64.5C144.962 65.0795 146.541 65.9318 147.905 67.0568C149.268 68.1705 150.376 69.5398 151.229 71.1648C152.081 72.7898 152.609 74.6477 152.814 76.7386ZM156.5 70.9432V64.0909H186.006V70.9432H175.42V99H167.102V70.9432H156.5ZM198.564 64.0909V99H190.126V64.0909H198.564ZM235.548 76.7386H227.026C226.912 75.8636 226.679 75.0739 226.327 74.3693C225.974 73.6648 225.509 73.0625 224.929 72.5625C224.349 72.0625 223.662 71.6818 222.866 71.4205C222.082 71.1477 221.213 71.0114 220.259 71.0114C218.565 71.0114 217.105 71.4261 215.878 72.2557C214.662 73.0852 213.724 74.2841 213.065 75.8523C212.418 77.4205 212.094 79.3182 212.094 81.5455C212.094 83.8636 212.423 85.8068 213.082 87.375C213.753 88.9318 214.69 90.108 215.895 90.9034C217.111 91.6875 218.548 92.0795 220.207 92.0795C221.139 92.0795 221.986 91.9602 222.747 91.7216C223.52 91.483 224.196 91.1364 224.776 90.6818C225.366 90.2159 225.849 89.6534 226.224 88.9943C226.611 88.3239 226.878 87.5682 227.026 86.7273L235.548 86.7784C235.401 88.3239 234.952 89.8466 234.202 91.3466C233.463 92.8466 232.446 94.2159 231.151 95.4545C229.855 96.6818 228.276 97.6591 226.412 98.3864C224.56 99.1136 222.435 99.4773 220.037 99.4773C216.878 99.4773 214.048 98.7841 211.548 97.3977C209.06 96 207.094 93.9659 205.651 91.2955C204.207 88.625 203.486 85.375 203.486 81.5455C203.486 77.7045 204.219 74.4489 205.685 71.7784C207.151 69.108 209.134 67.0795 211.634 65.6932C214.134 64.3068 216.935 63.6136 220.037 63.6136C222.151 63.6136 224.105 63.9091 225.901 64.5C227.696 65.0795 229.276 65.9318 230.639 67.0568C232.003 68.1705 233.111 69.5398 233.963 71.1648C234.815 72.7898 235.344 74.6477 235.548 76.7386ZM240.376 99V64.0909H264.717V70.9432H248.814V78.1023H263.473V84.9716H248.814V92.1477H264.717V99H240.376Z" fill="#DBD1B7"/>
<path d="M245.864 43.5455V61H241.125V43.5455H245.864ZM263.212 43.5455V61H259.257L252.95 51.8295H252.848V61H248.109V43.5455H252.132L258.337 52.6818H258.473V43.5455H263.212Z" fill="#E6E6E6"/>
</svg>
