<svg width="775" height="412" viewBox="0 0 775 412" fill="none" xmlns="http://www.w3.org/2000/svg">
<rect x="378.524" y="0.5" width="395.976" height="72.6425"  stroke="black"/>
<rect x="0.5" y="0.5" width="377.024" height="72.6425"  stroke="black"/>
<rect x="0.5" y="339.853" width="774" height="71.6473"  stroke="black"/>
<rect x="0.5" y="74.1425" width="595.461" height="56.7198"  stroke="black"/>
<rect x="378.524" y="305.022" width="217.436" height="33.8309"  stroke="black"/>
<rect x="0.5" y="305.022" width="377.024" height="33.8309"  stroke="black"/>
<rect x="596.961" y="305.022" width="177.539" height="33.8309"  stroke="black"/>
<rect x="596.961" y="74.1425" width="177.539" height="56.7198"  stroke="black"/>
<rect x="0.5" y="131.862" width="595.461" height="57.715"  stroke="black"/>
<rect x="596.961" y="131.862" width="177.539" height="57.715"  stroke="black"/>
<rect x="0.5" y="190.577" width="595.461" height="55.7246"  stroke="black"/>
<rect x="596.961" y="190.577" width="177.539" height="55.7246"  stroke="black"/>
<rect x="0.5" y="247.302" width="595.461" height="56.7198"  stroke="black"/>
<rect x="596.961" y="247.302" width="177.539" height="56.7198"  stroke="black"/>
<path d="M93.4631 43.8792H91.6165L96.9575 29.3338H98.7756L104.117 43.8792H102.27L97.9234 31.6349H97.8097L93.4631 43.8792ZM94.145 38.1974H101.588V39.7599H94.145V38.1974ZM113.03 39.419V32.9701H114.706V43.8792H113.03V42.0326H112.916C112.661 42.5866 112.263 43.0577 111.723 43.446C111.183 43.8295 110.501 44.0213 109.678 44.0213C108.996 44.0213 108.39 43.8721 107.859 43.5738C107.329 43.2708 106.912 42.8162 106.609 42.2102C106.306 41.5994 106.155 40.83 106.155 39.9019V32.9701H107.831V39.7883C107.831 40.5838 108.054 41.2182 108.499 41.6917C108.948 42.1652 109.521 42.4019 110.217 42.4019C110.634 42.4019 111.058 42.2954 111.489 42.0823C111.924 41.8693 112.289 41.5426 112.582 41.1022C112.881 40.6619 113.03 40.1008 113.03 39.419ZM122.52 32.9701V34.3906H116.867V32.9701H122.52ZM118.515 30.3565H120.191V40.7542C120.191 41.2277 120.259 41.5828 120.397 41.8196C120.539 42.0516 120.719 42.2078 120.937 42.2883C121.159 42.3641 121.393 42.4019 121.64 42.4019C121.824 42.4019 121.976 42.3925 122.094 42.3735C122.213 42.3499 122.307 42.3309 122.378 42.3167L122.719 43.8224C122.606 43.865 122.447 43.9076 122.243 43.9502C122.04 43.9976 121.782 44.0213 121.469 44.0213C120.996 44.0213 120.532 43.9195 120.077 43.7159C119.627 43.5123 119.253 43.2021 118.955 42.7855C118.661 42.3688 118.515 41.8432 118.515 41.2088V30.3565ZM129.356 44.1065C128.371 44.1065 127.507 43.8721 126.764 43.4034C126.025 42.9346 125.448 42.2788 125.031 41.436C124.619 40.5932 124.413 39.6084 124.413 38.4815C124.413 37.3451 124.619 36.3532 125.031 35.5056C125.448 34.6581 126.025 33.9999 126.764 33.5312C127.507 33.0625 128.371 32.8281 129.356 32.8281C130.341 32.8281 131.203 33.0625 131.941 33.5312C132.685 33.9999 133.262 34.6581 133.674 35.5056C134.091 36.3532 134.299 37.3451 134.299 38.4815C134.299 39.6084 134.091 40.5932 133.674 41.436C133.262 42.2788 132.685 42.9346 131.941 43.4034C131.203 43.8721 130.341 44.1065 129.356 44.1065ZM129.356 42.6008C130.104 42.6008 130.72 42.409 131.203 42.0255C131.686 41.642 132.043 41.1377 132.275 40.5127C132.507 39.8877 132.623 39.2107 132.623 38.4815C132.623 37.7523 132.507 37.0729 132.275 36.4431C132.043 35.8134 131.686 35.3044 131.203 34.9161C130.72 34.5279 130.104 34.3338 129.356 34.3338C128.608 34.3338 127.993 34.5279 127.51 34.9161C127.027 35.3044 126.669 35.8134 126.437 36.4431C126.205 37.0729 126.089 37.7523 126.089 38.4815C126.089 39.2107 126.205 39.8877 126.437 40.5127C126.669 41.1377 127.027 41.642 127.51 42.0255C127.993 42.409 128.608 42.6008 129.356 42.6008ZM143.108 36.8622V38.4247H136.744V36.8622H143.108ZM146.285 43.8792V29.3338H151.199C152.336 29.3338 153.268 29.5279 153.998 29.9161C154.727 30.2997 155.267 30.8276 155.617 31.5C155.967 32.1723 156.142 32.937 156.142 33.794C156.142 34.651 155.967 35.4109 155.617 36.0738C155.267 36.7367 154.729 37.2575 154.005 37.6363C153.28 38.0104 152.355 38.1974 151.228 38.1974H147.25V36.6065H151.171C151.947 36.6065 152.572 36.4928 153.046 36.2656C153.524 36.0383 153.87 35.7163 154.083 35.2997C154.301 34.8783 154.41 34.3764 154.41 33.794C154.41 33.2116 154.301 32.7026 154.083 32.267C153.865 31.8314 153.517 31.4952 153.039 31.2585C152.561 31.017 151.928 30.8963 151.142 30.8963H148.046V43.8792H146.285ZM153.131 37.3451L156.711 43.8792H154.665L151.142 37.3451H153.131ZM163.307 44.1065C162.256 44.1065 161.349 43.8745 160.587 43.4105C159.829 42.9417 159.244 42.2883 158.832 41.4502C158.425 40.6074 158.222 39.6273 158.222 38.5099C158.222 37.3925 158.425 36.4076 158.832 35.5553C159.244 34.6983 159.817 34.0307 160.551 33.5525C161.29 33.0696 162.152 32.8281 163.136 32.8281C163.705 32.8281 164.266 32.9228 164.82 33.1122C165.374 33.3016 165.878 33.6093 166.332 34.0355C166.787 34.4569 167.149 35.0156 167.419 35.7116C167.689 36.4076 167.824 37.2646 167.824 38.2826V38.9928H159.415V37.544H166.119C166.119 36.9285 165.996 36.3792 165.75 35.8963C165.509 35.4133 165.163 35.0321 164.713 34.7528C164.268 34.4734 163.742 34.3338 163.136 34.3338C162.469 34.3338 161.891 34.4995 161.403 34.8309C160.921 35.1576 160.549 35.5838 160.288 36.1093C160.028 36.6349 159.898 37.1983 159.898 37.7997V38.7656C159.898 39.5894 160.04 40.2878 160.324 40.8607C160.613 41.4289 161.013 41.8622 161.524 42.1605C162.036 42.454 162.63 42.6008 163.307 42.6008C163.747 42.6008 164.145 42.5392 164.5 42.4161C164.86 42.2883 165.17 42.0989 165.43 41.848C165.691 41.5923 165.892 41.275 166.034 40.8963L167.653 41.3508C167.483 41.9 167.197 42.383 166.794 42.7997C166.392 43.2116 165.894 43.5336 165.303 43.7656C164.711 43.9928 164.046 44.1065 163.307 44.1065ZM170.374 47.9701V32.9701H171.993V34.7031H172.192C172.315 34.5137 172.485 34.2722 172.703 33.9786C172.926 33.6803 173.243 33.4152 173.655 33.1832C174.072 32.9464 174.635 32.8281 175.345 32.8281C176.264 32.8281 177.073 33.0577 177.774 33.517C178.475 33.9763 179.022 34.6273 179.415 35.4701C179.808 36.3129 180.004 37.3072 180.004 38.4531C180.004 39.6084 179.808 40.6098 179.415 41.4573C179.022 42.3001 178.477 42.9535 177.781 43.4176C177.085 43.8768 176.283 44.1065 175.374 44.1065C174.673 44.1065 174.112 43.9905 173.69 43.7585C173.269 43.5217 172.945 43.2542 172.717 42.9559C172.49 42.6529 172.315 42.4019 172.192 42.2031H172.05V47.9701H170.374ZM172.021 38.4247C172.021 39.2485 172.142 39.9753 172.384 40.6051C172.625 41.2301 172.978 41.7201 173.442 42.0752C173.906 42.4256 174.474 42.6008 175.146 42.6008C175.847 42.6008 176.432 42.4161 176.901 42.0468C177.374 41.6728 177.729 41.1709 177.966 40.5411C178.207 39.9067 178.328 39.2012 178.328 38.4247C178.328 37.6576 178.21 36.9663 177.973 36.3508C177.741 35.7305 177.388 35.2405 176.915 34.8806C176.446 34.516 175.857 34.3338 175.146 34.3338C174.465 34.3338 173.892 34.5066 173.428 34.8522C172.964 35.1931 172.613 35.6714 172.376 36.2869C172.14 36.8977 172.021 37.6103 172.021 38.4247ZM185.771 44.1349C185.08 44.1349 184.453 44.0047 183.889 43.7443C183.326 43.4791 182.878 43.098 182.547 42.6008C182.216 42.0989 182.05 41.4928 182.05 40.7826C182.05 40.1576 182.173 39.651 182.419 39.2627C182.665 38.8697 182.994 38.562 183.406 38.3394C183.818 38.1169 184.273 37.9512 184.77 37.8423C185.272 37.7286 185.776 37.6387 186.283 37.5724C186.946 37.4872 187.483 37.4232 187.895 37.3806C188.312 37.3333 188.615 37.2552 188.804 37.1463C188.998 37.0374 189.095 36.848 189.095 36.5781V36.5213C189.095 35.8205 188.903 35.276 188.52 34.8877C188.141 34.4995 187.566 34.3053 186.794 34.3053C185.994 34.3053 185.367 34.4805 184.912 34.8309C184.457 35.1813 184.138 35.5553 183.953 35.9531L182.362 35.3849C182.646 34.722 183.025 34.2059 183.499 33.8366C183.977 33.4625 184.498 33.2021 185.061 33.0553C185.629 32.9038 186.188 32.8281 186.737 32.8281C187.088 32.8281 187.49 32.8707 187.945 32.9559C188.404 33.0364 188.847 33.2045 189.273 33.4602C189.704 33.7159 190.061 34.1017 190.345 34.6178C190.629 35.1339 190.771 35.8252 190.771 36.6917V43.8792H189.095V42.4019H189.01C188.896 42.6387 188.707 42.892 188.442 43.1619C188.177 43.4318 187.824 43.6614 187.384 43.8508C186.943 44.0402 186.406 44.1349 185.771 44.1349ZM186.027 42.6292C186.69 42.6292 187.249 42.499 187.703 42.2386C188.162 41.9782 188.508 41.642 188.74 41.2301C188.977 40.8181 189.095 40.3849 189.095 39.9303V38.3963C189.024 38.4815 188.868 38.5596 188.626 38.6306C188.39 38.6969 188.115 38.7561 187.803 38.8082C187.495 38.8555 187.194 38.8982 186.901 38.936C186.612 38.9692 186.377 38.9976 186.198 39.0213C185.762 39.0781 185.355 39.1704 184.976 39.2982C184.602 39.4214 184.299 39.6084 184.067 39.8593C183.84 40.1055 183.726 40.4417 183.726 40.8678C183.726 41.4502 183.941 41.8906 184.372 42.1889C184.808 42.4824 185.359 42.6292 186.027 42.6292ZM193.831 43.8792V32.9701H195.507V43.8792H193.831ZM194.683 31.1519C194.356 31.1519 194.075 31.0407 193.838 30.8181C193.606 30.5956 193.49 30.3281 193.49 30.0156C193.49 29.7031 193.606 29.4356 193.838 29.213C194.075 28.9905 194.356 28.8792 194.683 28.8792C195.01 28.8792 195.289 28.9905 195.521 29.213C195.758 29.4356 195.876 29.7031 195.876 30.0156C195.876 30.3281 195.758 30.5956 195.521 30.8181C195.289 31.0407 195.01 31.1519 194.683 31.1519ZM198.577 43.8792V32.9701H200.196V34.6178H200.31C200.509 34.0781 200.868 33.6401 201.389 33.3039C201.91 32.9678 202.497 32.7997 203.151 32.7997C203.274 32.7997 203.428 32.802 203.612 32.8068C203.797 32.8115 203.937 32.8186 204.031 32.8281V34.5326C203.974 34.5184 203.844 34.4971 203.641 34.4687C203.442 34.4356 203.231 34.419 203.009 34.419C202.478 34.419 202.005 34.5303 201.588 34.7528C201.176 34.9706 200.849 35.2736 200.608 35.6619C200.371 36.0454 200.253 36.4834 200.253 36.9758V43.8792H198.577ZM213.632 29.3338V43.8792H211.87V29.3338H213.632ZM218.612 37.3167V43.8792H216.936V32.9701H218.555V34.6747H218.698C218.953 34.1207 219.341 33.6756 219.862 33.3394C220.383 32.9985 221.055 32.8281 221.879 32.8281C222.618 32.8281 223.264 32.9796 223.818 33.2826C224.372 33.5809 224.803 34.0355 225.111 34.6463C225.419 35.2523 225.573 36.0194 225.573 36.9474V43.8792H223.896V37.061C223.896 36.204 223.674 35.5364 223.229 35.0582C222.784 34.5752 222.173 34.3338 221.396 34.3338C220.861 34.3338 220.383 34.4498 219.962 34.6818C219.545 34.9138 219.216 35.2523 218.974 35.6974C218.733 36.1425 218.612 36.6822 218.612 37.3167ZM237.165 32.9701L233.131 43.8792H231.427L227.392 32.9701H229.211L232.222 41.6633H232.336L235.347 32.9701H237.165ZM243.419 44.1065C242.434 44.1065 241.57 43.8721 240.826 43.4034C240.088 42.9346 239.51 42.2788 239.093 41.436C238.682 40.5932 238.476 39.6084 238.476 38.4815C238.476 37.3451 238.682 36.3532 239.093 35.5056C239.51 34.6581 240.088 33.9999 240.826 33.5312C241.57 33.0625 242.434 32.8281 243.419 32.8281C244.404 32.8281 245.265 33.0625 246.004 33.5312C246.747 33.9999 247.325 34.6581 247.737 35.5056C248.154 36.3532 248.362 37.3451 248.362 38.4815C248.362 39.6084 248.154 40.5932 247.737 41.436C247.325 42.2788 246.747 42.9346 246.004 43.4034C245.265 43.8721 244.404 44.1065 243.419 44.1065ZM243.419 42.6008C244.167 42.6008 244.782 42.409 245.265 42.0255C245.748 41.642 246.106 41.1377 246.338 40.5127C246.57 39.8877 246.686 39.2107 246.686 38.4815C246.686 37.7523 246.57 37.0729 246.338 36.4431C246.106 35.8134 245.748 35.3044 245.265 34.9161C244.782 34.5279 244.167 34.3338 243.419 34.3338C242.671 34.3338 242.055 34.5279 241.572 34.9161C241.089 35.3044 240.732 35.8134 240.5 36.4431C240.268 37.0729 240.152 37.7523 240.152 38.4815C240.152 39.2107 240.268 39.8877 240.5 40.5127C240.732 41.1377 241.089 41.642 241.572 42.0255C242.055 42.409 242.671 42.6008 243.419 42.6008ZM250.921 43.8792V32.9701H252.597V43.8792H250.921ZM251.773 31.1519C251.446 31.1519 251.164 31.0407 250.928 30.8181C250.696 30.5956 250.58 30.3281 250.58 30.0156C250.58 29.7031 250.696 29.4356 250.928 29.213C251.164 28.9905 251.446 28.8792 251.773 28.8792C252.099 28.8792 252.379 28.9905 252.611 29.213C252.848 29.4356 252.966 29.7031 252.966 30.0156C252.966 30.3281 252.848 30.5956 252.611 30.8181C252.379 31.0407 252.099 31.1519 251.773 31.1519ZM260.098 44.1065C259.076 44.1065 258.195 43.865 257.456 43.3821C256.718 42.8991 256.15 42.2339 255.752 41.3863C255.354 40.5388 255.155 39.5705 255.155 38.4815C255.155 37.3735 255.359 36.3958 255.766 35.5482C256.178 34.696 256.751 34.0307 257.485 33.5525C258.223 33.0696 259.085 32.8281 260.07 32.8281C260.837 32.8281 261.528 32.9701 262.144 33.2542C262.759 33.5383 263.264 33.936 263.657 34.4474C264.05 34.9588 264.294 35.5553 264.388 36.2372H262.712C262.584 35.74 262.3 35.2997 261.86 34.9161C261.424 34.5279 260.837 34.3338 260.098 34.3338C259.445 34.3338 258.872 34.5042 258.38 34.8451C257.892 35.1813 257.511 35.6571 257.236 36.2727C256.966 36.8835 256.831 37.6008 256.831 38.4247C256.831 39.2675 256.964 40.0014 257.229 40.6264C257.499 41.2514 257.878 41.7367 258.365 42.0823C258.858 42.428 259.436 42.6008 260.098 42.6008C260.534 42.6008 260.929 42.525 261.285 42.3735C261.64 42.222 261.94 42.0042 262.187 41.7201C262.433 41.436 262.608 41.0951 262.712 40.6974H264.388C264.294 41.3413 264.059 41.9214 263.685 42.4375C263.316 42.9488 262.826 43.356 262.215 43.659C261.609 43.9573 260.903 44.1065 260.098 44.1065ZM271.412 44.1065C270.361 44.1065 269.454 43.8745 268.692 43.4105C267.935 42.9417 267.35 42.2883 266.938 41.4502C266.531 40.6074 266.327 39.6273 266.327 38.5099C266.327 37.3925 266.531 36.4076 266.938 35.5553C267.35 34.6983 267.923 34.0307 268.657 33.5525C269.395 33.0696 270.257 32.8281 271.242 32.8281C271.81 32.8281 272.371 32.9228 272.925 33.1122C273.479 33.3016 273.983 33.6093 274.438 34.0355C274.892 34.4569 275.255 35.0156 275.525 35.7116C275.794 36.4076 275.929 37.2646 275.929 38.2826V38.9928H267.52V37.544H274.225C274.225 36.9285 274.102 36.3792 273.856 35.8963C273.614 35.4133 273.268 35.0321 272.819 34.7528C272.374 34.4734 271.848 34.3338 271.242 34.3338C270.574 34.3338 269.997 34.4995 269.509 34.8309C269.026 35.1576 268.654 35.5838 268.394 36.1093C268.133 36.6349 268.003 37.1983 268.003 37.7997V38.7656C268.003 39.5894 268.145 40.2878 268.429 40.8607C268.718 41.4289 269.118 41.8622 269.63 42.1605C270.141 42.454 270.735 42.6008 271.412 42.6008C271.853 42.6008 272.25 42.5392 272.606 42.4161C272.965 42.2883 273.276 42.0989 273.536 41.848C273.796 41.5923 273.998 41.275 274.14 40.8963L275.759 41.3508C275.588 41.9 275.302 42.383 274.9 42.7997C274.497 43.2116 274 43.5336 273.408 43.7656C272.816 43.9928 272.151 44.1065 271.412 44.1065Z" fill="black"/>
<path d="M507.127 316.51V314.947H518.036V316.51H513.462V329.493H511.701V316.51H507.127ZM523.377 329.72C522.392 329.72 521.528 329.486 520.784 329.017C520.046 328.548 519.468 327.892 519.051 327.05C518.64 326.207 518.434 325.222 518.434 324.095C518.434 322.959 518.64 321.967 519.051 321.119C519.468 320.272 520.046 319.614 520.784 319.145C521.528 318.676 522.392 318.442 523.377 318.442C524.362 318.442 525.223 318.676 525.962 319.145C526.705 319.614 527.283 320.272 527.695 321.119C528.112 321.967 528.32 322.959 528.32 324.095C528.32 325.222 528.112 326.207 527.695 327.05C527.283 327.892 526.705 328.548 525.962 329.017C525.223 329.486 524.362 329.72 523.377 329.72ZM523.377 328.214C524.125 328.214 524.74 328.023 525.223 327.639C525.706 327.256 526.064 326.751 526.296 326.126C526.528 325.501 526.644 324.824 526.644 324.095C526.644 323.366 526.528 322.686 526.296 322.057C526.064 321.427 525.706 320.918 525.223 320.53C524.74 320.141 524.125 319.947 523.377 319.947C522.629 319.947 522.013 320.141 521.53 320.53C521.047 320.918 520.69 321.427 520.458 322.057C520.226 322.686 520.11 323.366 520.11 324.095C520.11 324.824 520.226 325.501 520.458 326.126C520.69 326.751 521.047 327.256 521.53 327.639C522.013 328.023 522.629 328.214 523.377 328.214ZM535.623 318.584V320.004H529.969V318.584H535.623ZM531.617 315.97H533.293V326.368C533.293 326.841 533.362 327.196 533.499 327.433C533.641 327.665 533.821 327.821 534.039 327.902C534.262 327.978 534.496 328.015 534.742 328.015C534.927 328.015 535.078 328.006 535.197 327.987C535.315 327.963 535.41 327.944 535.481 327.93L535.822 329.436C535.708 329.479 535.549 329.521 535.346 329.564C535.142 329.611 534.884 329.635 534.572 329.635C534.098 329.635 533.634 329.533 533.18 329.329C532.73 329.126 532.356 328.816 532.058 328.399C531.764 327.982 531.617 327.457 531.617 326.822V315.97ZM541.354 329.748C540.663 329.748 540.036 329.618 539.472 329.358C538.909 329.093 538.461 328.712 538.13 328.214C537.799 327.712 537.633 327.106 537.633 326.396C537.633 325.771 537.756 325.265 538.002 324.876C538.248 324.483 538.577 324.176 538.989 323.953C539.401 323.73 539.856 323.565 540.353 323.456C540.855 323.342 541.359 323.252 541.866 323.186C542.529 323.101 543.066 323.037 543.478 322.994C543.895 322.947 544.198 322.869 544.387 322.76C544.581 322.651 544.678 322.462 544.678 322.192V322.135C544.678 321.434 544.486 320.89 544.103 320.501C543.724 320.113 543.149 319.919 542.377 319.919C541.577 319.919 540.95 320.094 540.495 320.444C540.04 320.795 539.721 321.169 539.536 321.567L537.945 320.998C538.229 320.336 538.608 319.819 539.082 319.45C539.56 319.076 540.081 318.816 540.644 318.669C541.212 318.517 541.771 318.442 542.32 318.442C542.671 318.442 543.073 318.484 543.528 318.569C543.987 318.65 544.43 318.818 544.856 319.074C545.287 319.329 545.644 319.715 545.928 320.231C546.212 320.748 546.354 321.439 546.354 322.305V329.493H544.678V328.015H544.593C544.479 328.252 544.29 328.506 544.025 328.775C543.76 329.045 543.407 329.275 542.967 329.464C542.526 329.654 541.989 329.748 541.354 329.748ZM541.61 328.243C542.273 328.243 542.832 328.113 543.286 327.852C543.745 327.592 544.091 327.256 544.323 326.844C544.56 326.432 544.678 325.998 544.678 325.544V324.01C544.607 324.095 544.451 324.173 544.209 324.244C543.973 324.31 543.698 324.37 543.386 324.422C543.078 324.469 542.777 324.512 542.484 324.55C542.195 324.583 541.96 324.611 541.781 324.635C541.345 324.692 540.938 324.784 540.559 324.912C540.185 325.035 539.882 325.222 539.65 325.473C539.423 325.719 539.309 326.055 539.309 326.481C539.309 327.064 539.524 327.504 539.955 327.802C540.391 328.096 540.942 328.243 541.61 328.243ZM551.09 314.947V329.493H549.414V314.947H551.09ZM564.046 331.311V313.129H565.211V331.311H564.046ZM567.967 318.584C567.881 317.864 567.536 317.305 566.93 316.908C566.324 316.51 565.58 316.311 564.7 316.311C564.056 316.311 563.492 316.415 563.009 316.623C562.531 316.832 562.157 317.118 561.887 317.483C561.622 317.847 561.489 318.262 561.489 318.726C561.489 319.114 561.582 319.448 561.766 319.727C561.956 320.002 562.197 320.231 562.491 320.416C562.784 320.596 563.092 320.745 563.414 320.864C563.736 320.977 564.032 321.069 564.302 321.14L565.779 321.538C566.158 321.638 566.579 321.775 567.043 321.95C567.512 322.125 567.959 322.364 568.386 322.667C568.817 322.966 569.172 323.349 569.451 323.818C569.73 324.287 569.87 324.862 569.87 325.544C569.87 326.33 569.664 327.04 569.252 327.675C568.845 328.309 568.248 328.813 567.462 329.187C566.681 329.561 565.732 329.748 564.614 329.748C563.573 329.748 562.671 329.58 561.908 329.244C561.151 328.908 560.554 328.439 560.119 327.838C559.688 327.237 559.444 326.538 559.387 325.743H561.205C561.253 326.292 561.437 326.747 561.759 327.106C562.086 327.462 562.498 327.727 562.995 327.902C563.497 328.072 564.037 328.158 564.614 328.158C565.287 328.158 565.89 328.049 566.425 327.831C566.96 327.608 567.384 327.301 567.697 326.908C568.009 326.51 568.165 326.046 568.165 325.515C568.165 325.033 568.031 324.64 567.761 324.337C567.491 324.033 567.136 323.787 566.695 323.598C566.255 323.408 565.779 323.243 565.268 323.101L563.478 322.589C562.342 322.263 561.442 321.796 560.779 321.19C560.116 320.584 559.785 319.791 559.785 318.811C559.785 317.997 560.005 317.286 560.445 316.68C560.89 316.069 561.487 315.596 562.235 315.26C562.988 314.919 563.828 314.748 564.756 314.748C565.694 314.748 566.527 314.917 567.256 315.253C567.986 315.584 568.563 316.039 568.989 316.616C569.42 317.194 569.647 317.85 569.671 318.584H567.967ZM573.76 327.632C573.41 327.632 573.109 327.506 572.858 327.256C572.607 327.005 572.482 326.704 572.482 326.354C572.482 326.003 572.607 325.703 572.858 325.452C573.109 325.201 573.41 325.075 573.76 325.075C574.111 325.075 574.411 325.201 574.662 325.452C574.913 325.703 575.039 326.003 575.039 326.354C575.039 326.586 574.979 326.799 574.861 326.993C574.747 327.187 574.594 327.343 574.399 327.462C574.21 327.575 573.997 327.632 573.76 327.632ZM573.76 320.274C573.41 320.274 573.109 320.149 572.858 319.898C572.607 319.647 572.482 319.346 572.482 318.996C572.482 318.645 572.607 318.345 572.858 318.094C573.109 317.843 573.41 317.717 573.76 317.717C574.111 317.717 574.411 317.843 574.662 318.094C574.913 318.345 575.039 318.645 575.039 318.996C575.039 319.228 574.979 319.441 574.861 319.635C574.747 319.829 574.594 319.985 574.399 320.104C574.21 320.217 573.997 320.274 573.76 320.274Z" fill="black"/>
<path d="M666.01 329.493V328.214L670.811 322.959C671.375 322.343 671.839 321.808 672.203 321.354C672.568 320.894 672.838 320.463 673.013 320.061C673.193 319.654 673.283 319.228 673.283 318.783C673.283 318.271 673.16 317.828 672.914 317.454C672.672 317.08 672.341 316.792 671.919 316.588C671.498 316.384 671.024 316.283 670.499 316.283C669.94 316.283 669.452 316.399 669.036 316.631C668.624 316.858 668.304 317.177 668.077 317.589C667.854 318.001 667.743 318.484 667.743 319.038H666.067C666.067 318.186 666.263 317.438 666.656 316.794C667.049 316.15 667.584 315.648 668.262 315.288C668.943 314.928 669.708 314.748 670.556 314.748C671.408 314.748 672.163 314.928 672.821 315.288C673.479 315.648 673.995 316.133 674.37 316.744C674.744 317.355 674.931 318.034 674.931 318.783C674.931 319.318 674.834 319.841 674.639 320.352C674.45 320.859 674.119 321.425 673.645 322.05C673.176 322.67 672.525 323.427 671.692 324.322L668.425 327.817V327.93H675.186V329.493H666.01ZM682.779 329.692C681.803 329.692 680.942 329.519 680.193 329.173C679.45 328.823 678.87 328.342 678.453 327.731C678.037 327.116 677.831 326.415 677.835 325.629C677.831 325.014 677.951 324.445 678.198 323.925C678.444 323.399 678.78 322.961 679.206 322.611C679.637 322.256 680.118 322.031 680.648 321.936V321.851C679.952 321.671 679.398 321.28 678.986 320.679C678.574 320.073 678.37 319.384 678.375 318.612C678.37 317.873 678.558 317.213 678.936 316.631C679.315 316.048 679.836 315.589 680.499 315.253C681.166 314.917 681.926 314.748 682.779 314.748C683.621 314.748 684.374 314.917 685.037 315.253C685.7 315.589 686.221 316.048 686.6 316.631C686.983 317.213 687.177 317.873 687.182 318.612C687.177 319.384 686.967 320.073 686.55 320.679C686.138 321.28 685.591 321.671 684.909 321.851V321.936C685.435 322.031 685.908 322.256 686.33 322.611C686.751 322.961 687.087 323.399 687.338 323.925C687.589 324.445 687.717 325.014 687.722 325.629C687.717 326.415 687.504 327.116 687.083 327.731C686.666 328.342 686.086 328.823 685.343 329.173C684.604 329.519 683.749 329.692 682.779 329.692ZM682.779 328.129C683.437 328.129 684.005 328.023 684.483 327.81C684.961 327.596 685.331 327.296 685.591 326.908C685.852 326.519 685.984 326.065 685.989 325.544C685.984 324.995 685.842 324.509 685.563 324.088C685.283 323.667 684.902 323.335 684.419 323.094C683.941 322.852 683.394 322.731 682.779 322.731C682.158 322.731 681.604 322.852 681.117 323.094C680.634 323.335 680.253 323.667 679.973 324.088C679.699 324.509 679.564 324.995 679.568 325.544C679.564 326.065 679.689 326.519 679.945 326.908C680.205 327.296 680.577 327.596 681.06 327.81C681.543 328.023 682.116 328.129 682.779 328.129ZM682.779 321.226C683.299 321.226 683.761 321.122 684.164 320.913C684.571 320.705 684.89 320.414 685.122 320.04C685.354 319.666 685.473 319.228 685.477 318.726C685.473 318.233 685.357 317.805 685.129 317.44C684.902 317.071 684.587 316.787 684.185 316.588C683.782 316.384 683.314 316.283 682.779 316.283C682.234 316.283 681.758 316.384 681.351 316.588C680.944 316.787 680.629 317.071 680.406 317.44C680.184 317.805 680.075 318.233 680.08 318.726C680.075 319.228 680.186 319.666 680.414 320.04C680.646 320.414 680.965 320.705 681.372 320.913C681.78 321.122 682.248 321.226 682.779 321.226ZM695.188 329.692C694.118 329.692 693.207 329.4 692.454 328.818C691.701 328.231 691.126 327.381 690.728 326.268C690.33 325.151 690.131 323.801 690.131 322.22C690.131 320.648 690.33 319.306 690.728 318.193C691.13 317.076 691.708 316.223 692.461 315.636C693.218 315.044 694.127 314.748 695.188 314.748C696.249 314.748 697.155 315.044 697.908 315.636C698.666 316.223 699.243 317.076 699.641 318.193C700.044 319.306 700.245 320.648 700.245 322.22C700.245 323.801 700.046 325.151 699.648 326.268C699.251 327.381 698.675 328.231 697.922 328.818C697.17 329.4 696.258 329.692 695.188 329.692ZM695.188 328.129C696.249 328.129 697.073 327.618 697.66 326.595C698.247 325.572 698.54 324.114 698.54 322.22C698.54 320.961 698.405 319.888 698.136 319.003C697.87 318.117 697.487 317.443 696.985 316.979C696.488 316.515 695.889 316.283 695.188 316.283C694.137 316.283 693.315 316.801 692.724 317.838C692.132 318.87 691.836 320.331 691.836 322.22C691.836 323.48 691.968 324.55 692.234 325.43C692.499 326.311 692.88 326.981 693.377 327.44C693.879 327.899 694.483 328.129 695.188 328.129ZM707.688 329.692C706.618 329.692 705.707 329.4 704.954 328.818C704.201 328.231 703.626 327.381 703.228 326.268C702.83 325.151 702.631 323.801 702.631 322.22C702.631 320.648 702.83 319.306 703.228 318.193C703.63 317.076 704.208 316.223 704.961 315.636C705.718 315.044 706.627 314.748 707.688 314.748C708.749 314.748 709.655 315.044 710.408 315.636C711.166 316.223 711.743 317.076 712.141 318.193C712.544 319.306 712.745 320.648 712.745 322.22C712.745 323.801 712.546 325.151 712.148 326.268C711.751 327.381 711.175 328.231 710.422 328.818C709.67 329.4 708.758 329.692 707.688 329.692ZM707.688 328.129C708.749 328.129 709.573 327.618 710.16 326.595C710.747 325.572 711.04 324.114 711.04 322.22C711.04 320.961 710.905 319.888 710.636 319.003C710.37 318.117 709.987 317.443 709.485 316.979C708.988 316.515 708.389 316.283 707.688 316.283C706.637 316.283 705.815 316.801 705.224 317.838C704.632 318.87 704.336 320.331 704.336 322.22C704.336 323.48 704.468 324.55 704.734 325.43C704.999 326.311 705.38 326.981 705.877 327.44C706.379 327.899 706.983 328.129 707.688 328.129Z" fill="black"/>
</svg>
