<svg width="775" height="412" viewBox="0 0 775 412" fill="none" xmlns="http://www.w3.org/2000/svg">
<rect x="200.565" y="0.5" width="373.87" height="411"  stroke="black"/>
<rect x="575.435" y="0.5" width="199.065" height="411"  stroke="black"/>
<rect x="0.5" y="0.5" width="199.065" height="411"  stroke="black"/>
<rect x="238.461" y="134.348" width="222.295" height="19.9034" fill="black"/>
<rect x="238.461" y="88.57" width="222.295" height="19.9034" fill="black"/>
<rect x="238.461" y="176.145" width="222.295" height="20.8986" fill="black"/>
<rect x="238.461" y="218.937" width="222.295" height="19.9034" fill="black"/>
<rect x="238.461" y="260.734" width="222.295" height="19.9034" fill="black"/>
<rect x="238.461" y="303.527" width="222.295" height="19.9034" fill="black"/>
<path d="M267.069 36.3716H259.967C259.872 35.6424 259.678 34.9843 259.385 34.3971C259.091 33.81 258.703 33.3081 258.22 32.8914C257.737 32.4748 257.164 32.1575 256.501 31.9397C255.848 31.7125 255.123 31.5988 254.328 31.5988C252.917 31.5988 251.7 31.9445 250.677 32.6358C249.664 33.3271 248.883 34.3261 248.334 35.6329C247.794 36.9397 247.524 38.5212 247.524 40.3772C247.524 42.3091 247.799 43.9284 248.348 45.2352C248.907 46.5325 249.688 47.5127 250.692 48.1755C251.705 48.8289 252.903 49.1557 254.285 49.1557C255.062 49.1557 255.767 49.0562 256.402 48.8574C257.046 48.6585 257.609 48.3697 258.092 47.9909C258.585 47.6026 258.987 47.1339 259.299 46.5846C259.621 46.0259 259.844 45.3962 259.967 44.6954L267.069 44.738C266.946 46.0259 266.572 47.2949 265.947 48.5449C265.332 49.7949 264.484 50.936 263.405 51.9682C262.325 52.9909 261.009 53.8053 259.456 54.4113C257.912 55.0174 256.141 55.3204 254.143 55.3204C251.511 55.3204 249.153 54.7428 247.069 53.5875C244.996 52.4227 243.357 50.7276 242.155 48.5022C240.952 46.2769 240.351 43.5685 240.351 40.3772C240.351 37.1765 240.961 34.4634 242.183 32.238C243.405 30.0127 245.057 28.3223 247.14 27.167C249.224 26.0117 251.558 25.4341 254.143 25.4341C255.905 25.4341 257.533 25.6803 259.03 26.1727C260.526 26.6557 261.842 27.3659 262.978 28.3034C264.115 29.2314 265.038 30.3725 265.748 31.7267C266.459 33.0808 266.899 34.6291 267.069 36.3716ZM281.277 55.3346C278.986 55.3346 277.016 54.8659 275.368 53.9284C273.73 52.9814 272.466 51.6651 271.576 49.9795C270.695 48.2844 270.255 46.3195 270.255 44.0846C270.255 41.8403 270.695 39.8753 271.576 38.1897C272.466 36.4947 273.73 35.1784 275.368 34.2409C277.016 33.2939 278.986 32.8204 281.277 32.8204C283.569 32.8204 285.534 33.2939 287.172 34.2409C288.82 35.1784 290.084 36.4947 290.965 38.1897C291.855 39.8753 292.3 41.8403 292.3 44.0846C292.3 46.3195 291.855 48.2844 290.965 49.9795C290.084 51.6651 288.82 52.9814 287.172 53.9284C285.534 54.8659 283.569 55.3346 281.277 55.3346ZM281.32 50.0932C282.153 50.0932 282.859 49.8375 283.437 49.3261C284.014 48.8147 284.455 48.1045 284.758 47.1954C285.07 46.2863 285.226 45.2352 285.226 44.042C285.226 42.8299 285.07 41.7693 284.758 40.8602C284.455 39.9511 284.014 39.2409 283.437 38.7295C282.859 38.2182 282.153 37.9625 281.32 37.9625C280.458 37.9625 279.729 38.2182 279.133 38.7295C278.545 39.2409 278.096 39.9511 277.783 40.8602C277.48 41.7693 277.329 42.8299 277.329 44.042C277.329 45.2352 277.48 46.2863 277.783 47.1954C278.096 48.1045 278.545 48.8147 279.133 49.3261C279.729 49.8375 280.458 50.0932 281.32 50.0932ZM314.907 39.7664L308.529 39.9369C308.463 39.4824 308.283 39.0799 307.989 38.7295C307.696 38.3697 307.312 38.0903 306.839 37.8914C306.375 37.6831 305.835 37.5789 305.219 37.5789C304.414 37.5789 303.728 37.7399 303.16 38.0619C302.601 38.3839 302.326 38.8195 302.336 39.3687C302.326 39.7949 302.497 40.1642 302.847 40.4767C303.207 40.7892 303.846 41.0401 304.765 41.2295L308.969 42.025C311.147 42.4416 312.767 43.1329 313.827 44.0988C314.897 45.0647 315.437 46.3432 315.447 47.9341C315.437 49.4303 314.992 50.7324 314.111 51.8403C313.24 52.9483 312.047 53.81 310.532 54.4255C309.017 55.0316 307.284 55.3346 305.333 55.3346C302.217 55.3346 299.76 54.6954 297.961 53.417C296.171 52.1291 295.148 50.4057 294.893 48.2466L301.753 48.0761C301.905 48.8716 302.298 49.4776 302.932 49.8943C303.567 50.311 304.376 50.5193 305.361 50.5193C306.251 50.5193 306.976 50.3536 307.535 50.0221C308.093 49.6907 308.377 49.2504 308.387 48.7011C308.377 48.2087 308.16 47.8157 307.733 47.5221C307.307 47.2191 306.64 46.9824 305.731 46.8119L301.924 46.0875C299.736 45.6897 298.107 44.9558 297.037 43.8858C295.967 42.8062 295.437 41.4331 295.447 39.7664C295.437 38.3081 295.825 37.0629 296.611 36.0307C297.397 34.989 298.515 34.1935 299.964 33.6443C301.412 33.095 303.122 32.8204 305.091 32.8204C308.046 32.8204 310.375 33.4407 312.08 34.6812C313.785 35.9123 314.727 37.6074 314.907 39.7664ZM331.182 33.1045V38.2182H317.417V33.1045H331.182ZM320.301 27.8772H327.247V48.0619C327.247 48.488 327.313 48.8337 327.446 49.0988C327.588 49.3545 327.791 49.5392 328.057 49.6528C328.322 49.757 328.639 49.8091 329.008 49.8091C329.273 49.8091 329.553 49.7854 329.846 49.738C330.149 49.6812 330.377 49.6339 330.528 49.596L331.579 54.6102C331.248 54.7049 330.779 54.8233 330.173 54.9653C329.576 55.1074 328.862 55.1973 328.028 55.2352C326.399 55.311 325.003 55.1216 323.838 54.667C322.683 54.203 321.797 53.4833 321.182 52.5079C320.576 51.5325 320.282 50.3062 320.301 48.8289V27.8772ZM335.194 25.8318H343.902L351.288 43.8432H351.629L359.015 25.8318H367.723V54.9227H360.876V37.0534H360.635L353.646 54.738H349.271L342.282 36.9539H342.041V54.9227H335.194V25.8318ZM378.259 55.292C376.867 55.292 375.631 55.06 374.552 54.596C373.482 54.1225 372.634 53.4123 372.009 52.4653C371.393 51.5089 371.086 50.311 371.086 48.8716C371.086 47.6594 371.299 46.6367 371.725 45.8034C372.151 44.97 372.738 44.293 373.486 43.7721C374.234 43.2513 375.096 42.8583 376.072 42.5932C377.047 42.3185 378.089 42.1339 379.197 42.0392C380.437 41.9255 381.436 41.8072 382.194 41.6841C382.951 41.5515 383.5 41.3668 383.841 41.1301C384.192 40.8839 384.367 40.5382 384.367 40.0932V40.0221C384.367 39.293 384.116 38.7295 383.614 38.3318C383.112 37.9341 382.435 37.7352 381.583 37.7352C380.664 37.7352 379.926 37.9341 379.367 38.3318C378.808 38.7295 378.453 39.2788 378.302 39.9795L371.895 39.7522C372.085 38.4265 372.572 37.2428 373.358 36.2011C374.154 35.15 375.243 34.3261 376.625 33.7295C378.018 33.1235 379.689 32.8204 381.64 32.8204C383.032 32.8204 384.315 32.9861 385.489 33.3176C386.663 33.6396 387.686 34.113 388.557 34.738C389.429 35.3536 390.101 36.1111 390.574 37.0108C391.057 37.9104 391.299 38.9379 391.299 40.0932V54.9227H384.765V51.8829H384.594C384.206 52.6216 383.709 53.2466 383.103 53.7579C382.506 54.2693 381.801 54.6528 380.986 54.9085C380.181 55.1642 379.272 55.292 378.259 55.292ZM380.404 50.7466C381.152 50.7466 381.824 50.595 382.421 50.292C383.027 49.989 383.51 49.5723 383.87 49.042C384.23 48.5022 384.41 47.8772 384.41 47.167V45.0932C384.211 45.1973 383.969 45.292 383.685 45.3772C383.411 45.4625 383.107 45.543 382.776 45.6187C382.445 45.6945 382.104 45.7608 381.753 45.8176C381.403 45.8744 381.067 45.9265 380.745 45.9738C380.091 46.078 379.533 46.239 379.069 46.4568C378.614 46.6746 378.264 46.9587 378.018 47.3091C377.781 47.65 377.662 48.0572 377.662 48.5307C377.662 49.2504 377.918 49.7996 378.429 50.1784C378.95 50.5572 379.608 50.7466 380.404 50.7466ZM395.546 54.9227V33.1045H402.293V37.0818H402.52C402.918 35.6424 403.567 34.5723 404.466 33.8716C405.366 33.1613 406.412 32.8062 407.606 32.8062C407.928 32.8062 408.259 32.8299 408.6 32.8772C408.941 32.9151 409.258 32.9767 409.552 33.0619V39.0988C409.22 38.9852 408.785 38.8952 408.245 38.8289C407.715 38.7627 407.241 38.7295 406.824 38.7295C406 38.7295 405.257 38.9142 404.594 39.2835C403.941 39.6433 403.425 40.15 403.046 40.8034C402.677 41.4473 402.492 42.2049 402.492 43.0761V54.9227H395.546ZM425.713 33.1045V38.2182H411.949V33.1045H425.713ZM414.832 27.8772H421.778V48.0619C421.778 48.488 421.844 48.8337 421.977 49.0988C422.119 49.3545 422.323 49.5392 422.588 49.6528C422.853 49.757 423.17 49.8091 423.54 49.8091C423.805 49.8091 424.084 49.7854 424.378 49.738C424.681 49.6812 424.908 49.6339 425.059 49.596L426.111 54.6102C425.779 54.7049 425.31 54.8233 424.704 54.9653C424.108 55.1074 423.393 55.1973 422.559 55.2352C420.931 55.311 419.534 55.1216 418.369 54.667C417.214 54.203 416.328 53.4833 415.713 52.5079C415.107 51.5325 414.813 50.3062 414.832 48.8289V27.8772Z" fill="black"/>
<path d="M409.966 361.017V359.455H420.875V361.017H416.301V374H414.54V361.017H409.966ZM426.216 374.227C425.231 374.227 424.367 373.993 423.624 373.524C422.885 373.055 422.307 372.4 421.891 371.557C421.479 370.714 421.273 369.729 421.273 368.602C421.273 367.466 421.479 366.474 421.891 365.626C422.307 364.779 422.885 364.121 423.624 363.652C424.367 363.183 425.231 362.949 426.216 362.949C427.201 362.949 428.063 363.183 428.801 363.652C429.545 364.121 430.122 364.779 430.534 365.626C430.951 366.474 431.159 367.466 431.159 368.602C431.159 369.729 430.951 370.714 430.534 371.557C430.122 372.4 429.545 373.055 428.801 373.524C428.063 373.993 427.201 374.227 426.216 374.227ZM426.216 372.722C426.964 372.722 427.58 372.53 428.062 372.146C428.545 371.763 428.903 371.259 429.135 370.634C429.367 370.009 429.483 369.331 429.483 368.602C429.483 367.873 429.367 367.194 429.135 366.564C428.903 365.934 428.545 365.425 428.062 365.037C427.58 364.649 426.964 364.455 426.216 364.455C425.468 364.455 424.852 364.649 424.369 365.037C423.886 365.425 423.529 365.934 423.297 366.564C423.065 367.194 422.949 367.873 422.949 368.602C422.949 369.331 423.065 370.009 423.297 370.634C423.529 371.259 423.886 371.763 424.369 372.146C424.852 372.53 425.468 372.722 426.216 372.722ZM438.462 363.091V364.511H432.809V363.091H438.462ZM434.456 360.477H436.132V370.875C436.132 371.348 436.201 371.704 436.338 371.94C436.48 372.172 436.66 372.329 436.878 372.409C437.101 372.485 437.335 372.523 437.581 372.523C437.766 372.523 437.917 372.513 438.036 372.494C438.154 372.471 438.249 372.452 438.32 372.438L438.661 373.943C438.547 373.986 438.389 374.028 438.185 374.071C437.981 374.118 437.723 374.142 437.411 374.142C436.937 374.142 436.473 374.04 436.019 373.837C435.569 373.633 435.195 373.323 434.897 372.906C434.603 372.49 434.456 371.964 434.456 371.33V360.477ZM444.194 374.256C443.502 374.256 442.875 374.125 442.311 373.865C441.748 373.6 441.301 373.219 440.969 372.722C440.638 372.22 440.472 371.614 440.472 370.903C440.472 370.278 440.595 369.772 440.841 369.384C441.087 368.991 441.417 368.683 441.828 368.46C442.24 368.238 442.695 368.072 443.192 367.963C443.694 367.849 444.198 367.759 444.705 367.693C445.368 367.608 445.905 367.544 446.317 367.501C446.734 367.454 447.037 367.376 447.226 367.267C447.42 367.158 447.517 366.969 447.517 366.699V366.642C447.517 365.941 447.326 365.397 446.942 365.009C446.563 364.62 445.988 364.426 445.216 364.426C444.416 364.426 443.789 364.601 443.334 364.952C442.88 365.302 442.56 365.676 442.375 366.074L440.784 365.506C441.069 364.843 441.447 364.327 441.921 363.957C442.399 363.583 442.92 363.323 443.483 363.176C444.051 363.025 444.61 362.949 445.159 362.949C445.51 362.949 445.912 362.991 446.367 363.077C446.826 363.157 447.269 363.325 447.695 363.581C448.126 363.837 448.483 364.223 448.767 364.739C449.051 365.255 449.194 365.946 449.194 366.812V374H447.517V372.523H447.432C447.319 372.759 447.129 373.013 446.864 373.283C446.599 373.553 446.246 373.782 445.806 373.972C445.365 374.161 444.828 374.256 444.194 374.256ZM444.449 372.75C445.112 372.75 445.671 372.62 446.125 372.359C446.585 372.099 446.93 371.763 447.162 371.351C447.399 370.939 447.517 370.506 447.517 370.051V368.517C447.446 368.602 447.29 368.68 447.049 368.751C446.812 368.818 446.537 368.877 446.225 368.929C445.917 368.976 445.616 369.019 445.323 369.057C445.034 369.09 444.8 369.118 444.62 369.142C444.184 369.199 443.777 369.291 443.398 369.419C443.024 369.542 442.721 369.729 442.489 369.98C442.262 370.226 442.148 370.562 442.148 370.989C442.148 371.571 442.364 372.011 442.794 372.31C443.23 372.603 443.782 372.75 444.449 372.75ZM453.929 359.455V374H452.253V359.455H453.929ZM458.221 374.114C457.87 374.114 457.569 373.988 457.319 373.737C457.068 373.486 456.942 373.186 456.942 372.835C456.942 372.485 457.068 372.184 457.319 371.933C457.569 371.682 457.87 371.557 458.221 371.557C458.571 371.557 458.872 371.682 459.123 371.933C459.373 372.184 459.499 372.485 459.499 372.835C459.499 373.067 459.44 373.28 459.321 373.474C459.208 373.669 459.054 373.825 458.86 373.943C458.67 374.057 458.457 374.114 458.221 374.114ZM458.221 366.017C457.87 366.017 457.569 365.892 457.319 365.641C457.068 365.39 456.942 365.089 456.942 364.739C456.942 364.388 457.068 364.088 457.319 363.837C457.569 363.586 457.87 363.46 458.221 363.46C458.571 363.46 458.872 363.586 459.123 363.837C459.373 364.088 459.499 364.388 459.499 364.739C459.499 364.971 459.44 365.184 459.321 365.378C459.208 365.572 459.054 365.728 458.86 365.847C458.67 365.96 458.457 366.017 458.221 366.017Z" fill="black"/>
<path d="M514.042 376.094V357.912H515.207V376.094H514.042ZM517.962 363.366C517.877 362.647 517.532 362.088 516.926 361.69C516.319 361.292 515.576 361.094 514.695 361.094C514.052 361.094 513.488 361.198 513.005 361.406C512.527 361.614 512.153 361.901 511.883 362.265C511.618 362.63 511.485 363.044 511.485 363.508C511.485 363.897 511.578 364.23 511.762 364.51C511.952 364.784 512.193 365.014 512.487 365.199C512.78 365.379 513.088 365.528 513.41 365.646C513.732 365.76 514.028 365.852 514.298 365.923L515.775 366.321C516.154 366.42 516.575 366.558 517.039 366.733C517.508 366.908 517.955 367.147 518.382 367.45C518.812 367.748 519.168 368.132 519.447 368.601C519.726 369.069 519.866 369.645 519.866 370.327C519.866 371.113 519.66 371.823 519.248 372.457C518.841 373.092 518.244 373.596 517.458 373.97C516.677 374.344 515.728 374.531 514.61 374.531C513.569 374.531 512.667 374.363 511.904 374.027C511.147 373.691 510.55 373.222 510.114 372.621C509.684 372.019 509.44 371.321 509.383 370.525H511.201C511.248 371.075 511.433 371.529 511.755 371.889C512.082 372.244 512.494 372.509 512.991 372.684C513.493 372.855 514.033 372.94 514.61 372.94C515.283 372.94 515.886 372.831 516.421 372.613C516.956 372.391 517.38 372.083 517.693 371.69C518.005 371.292 518.161 370.828 518.161 370.298C518.161 369.815 518.026 369.422 517.757 369.119C517.487 368.816 517.132 368.57 516.691 368.381C516.251 368.191 515.775 368.025 515.264 367.883L513.474 367.372C512.337 367.045 511.438 366.579 510.775 365.973C510.112 365.367 509.781 364.574 509.781 363.594C509.781 362.779 510.001 362.069 510.441 361.463C510.886 360.852 511.483 360.379 512.231 360.042C512.984 359.702 513.824 359.531 514.752 359.531C515.69 359.531 516.523 359.699 517.252 360.035C517.981 360.367 518.559 360.821 518.985 361.399C519.416 361.977 519.643 362.632 519.667 363.366H517.962ZM527.336 374.474C526.739 374.465 526.143 374.351 525.546 374.133C524.949 373.916 524.405 373.549 523.912 373.032C523.42 372.512 523.025 371.809 522.726 370.923C522.428 370.033 522.279 368.916 522.279 367.571C522.279 366.283 522.4 365.142 522.641 364.148C522.883 363.148 523.233 362.308 523.692 361.626C524.152 360.94 524.706 360.419 525.354 360.064C526.008 359.709 526.744 359.531 527.563 359.531C528.377 359.531 529.102 359.694 529.736 360.021C530.375 360.343 530.896 360.793 531.299 361.371C531.701 361.948 531.962 362.613 532.08 363.366H530.347C530.186 362.713 529.874 362.171 529.41 361.74C528.946 361.309 528.33 361.094 527.563 361.094C526.436 361.094 525.548 361.584 524.9 362.564C524.256 363.544 523.931 364.919 523.927 366.69H524.04C524.305 366.288 524.62 365.944 524.985 365.66C525.354 365.372 525.761 365.149 526.206 364.993C526.652 364.836 527.123 364.758 527.62 364.758C528.453 364.758 529.215 364.967 529.907 365.383C530.598 365.795 531.152 366.366 531.569 367.095C531.985 367.819 532.194 368.65 532.194 369.588C532.194 370.488 531.992 371.311 531.59 372.059C531.188 372.803 530.622 373.395 529.893 373.835C529.168 374.271 528.316 374.484 527.336 374.474ZM527.336 372.912C527.932 372.912 528.467 372.763 528.941 372.464C529.419 372.166 529.795 371.766 530.07 371.264C530.349 370.762 530.489 370.203 530.489 369.588C530.489 368.987 530.354 368.44 530.084 367.947C529.819 367.45 529.452 367.055 528.983 366.761C528.519 366.468 527.989 366.321 527.393 366.321C526.943 366.321 526.524 366.411 526.135 366.591C525.747 366.766 525.406 367.007 525.113 367.315C524.824 367.623 524.597 367.976 524.431 368.373C524.265 368.766 524.182 369.181 524.182 369.616C524.182 370.194 524.317 370.734 524.587 371.236C524.862 371.738 525.236 372.142 525.709 372.45C526.188 372.758 526.73 372.912 527.336 372.912ZM539.646 374.474C538.67 374.474 537.809 374.301 537.061 373.956C536.317 373.605 535.737 373.125 535.32 372.514C534.904 371.898 534.698 371.198 534.703 370.412C534.698 369.796 534.819 369.228 535.065 368.707C535.311 368.182 535.647 367.744 536.073 367.393C536.504 367.038 536.985 366.813 537.515 366.719V366.633C536.819 366.453 536.265 366.063 535.853 365.461C535.441 364.855 535.238 364.166 535.242 363.395C535.238 362.656 535.425 361.996 535.803 361.413C536.182 360.831 536.703 360.372 537.366 360.035C538.034 359.699 538.793 359.531 539.646 359.531C540.489 359.531 541.241 359.699 541.904 360.035C542.567 360.372 543.088 360.831 543.467 361.413C543.85 361.996 544.044 362.656 544.049 363.395C544.044 364.166 543.834 364.855 543.417 365.461C543.005 366.063 542.458 366.453 541.776 366.633V366.719C542.302 366.813 542.775 367.038 543.197 367.393C543.618 367.744 543.954 368.182 544.205 368.707C544.456 369.228 544.584 369.796 544.589 370.412C544.584 371.198 544.371 371.898 543.95 372.514C543.533 373.125 542.953 373.605 542.21 373.956C541.471 374.301 540.616 374.474 539.646 374.474ZM539.646 372.912C540.304 372.912 540.872 372.805 541.35 372.592C541.828 372.379 542.198 372.078 542.458 371.69C542.719 371.302 542.851 370.847 542.856 370.327C542.851 369.777 542.709 369.292 542.43 368.871C542.15 368.449 541.769 368.118 541.286 367.876C540.808 367.635 540.261 367.514 539.646 367.514C539.025 367.514 538.471 367.635 537.984 367.876C537.501 368.118 537.12 368.449 536.84 368.871C536.566 369.292 536.431 369.777 536.436 370.327C536.431 370.847 536.556 371.302 536.812 371.69C537.072 372.078 537.444 372.379 537.927 372.592C538.41 372.805 538.983 372.912 539.646 372.912ZM539.646 366.008C540.167 366.008 540.628 365.904 541.031 365.696C541.438 365.488 541.757 365.196 541.989 364.822C542.221 364.448 542.34 364.01 542.345 363.508C542.34 363.016 542.224 362.587 541.997 362.223C541.769 361.854 541.454 361.569 541.052 361.371C540.65 361.167 540.181 361.065 539.646 361.065C539.101 361.065 538.625 361.167 538.218 361.371C537.811 361.569 537.496 361.854 537.274 362.223C537.051 362.587 536.942 363.016 536.947 363.508C536.942 364.01 537.053 364.448 537.281 364.822C537.513 365.196 537.832 365.488 538.239 365.696C538.647 365.904 539.115 366.008 539.646 366.008Z" fill="black"/>
</svg>
