<svg width="775" height="412" viewBox="0 0 775 412" fill="none" xmlns="http://www.w3.org/2000/svg">
<rect x="419.622" y="0.5" width="176.939" height="72.4919" stroke="black"/>
<rect x="0.5" y="0.5" width="418.122" height="35.7459" stroke="black"/>
<rect x="0.5" y="37.2459" width="418.122" height="109.238" stroke="black"/>
<rect x="0.5" y="147.484" width="418.122" height="35.7459" stroke="black"/>
<rect x="0.5" y="184.23" width="418.122" height="154.892" stroke="black"/>
<rect x="0.5" y="340.122" width="225.176" height="71.3784" stroke="black"/>
<rect x="226.676" y="340.122" width="123.343" height="71.3784" stroke="black"/>
<rect x="351.019" y="340.122" width="111.552" height="71.3784" stroke="black"/>
<rect x="463.571" y="340.122" width="122.271" height="71.3784" stroke="black"/>
<rect x="586.842" y="340.122" width="112.624" height="71.3784" stroke="black"/>
<rect x="700.465" y="340.122" width="74.0346" height="71.3784" stroke="black"/>
<rect x="419.622" y="73.9919" width="176.939" height="72.4919" stroke="black"/>
<rect x="419.622" y="220.976" width="176.939" height="35.7459" stroke="black"/>
<rect x="419.622" y="294.468" width="176.939" height="44.6541" stroke="black"/>
<rect x="419.622" y="147.484" width="176.939" height="72.4919" stroke="black"/>
<rect x="419.622" y="257.722" width="176.939" height="35.7459" stroke="black"/>
<rect x="597.561" y="0.5" width="176.939" height="72.4919" stroke="black"/>
<rect x="597.561" y="73.9919" width="176.939" height="72.4919" stroke="black"/>
<rect x="597.561" y="220.976" width="176.939" height="35.7459" stroke="black"/>
<rect x="597.561" y="294.468" width="176.939" height="44.6541" stroke="black"/>
<rect x="597.561" y="147.484" width="176.939" height="72.4919" stroke="black"/>
<path d="M425.549 15.1135L422.586 4.93168H425.306L426.842 11.6036H426.926L428.681 4.93168H430.899L432.654 11.6185H432.738L434.279 4.93168H436.994L434.036 15.1135H431.664L429.83 8.93878H429.75L427.916 15.1135H425.549ZM439.106 15.1135H436.461L439.896 4.93168H443.172L446.608 15.1135H443.963L441.571 7.49702H441.492L439.106 15.1135ZM438.753 11.1064H444.281V12.9757H438.753V11.1064ZM453.907 8.25767C453.851 8.04886 453.768 7.86492 453.659 7.70582C453.549 7.54342 453.415 7.40587 453.256 7.29318C453.097 7.18049 452.915 7.09598 452.709 7.03963C452.504 6.97997 452.278 6.95014 452.033 6.95014C451.539 6.95014 451.112 7.06946 450.75 7.3081C450.392 7.54673 450.116 7.89474 449.92 8.35213C449.724 8.8062 449.627 9.35805 449.627 10.0077C449.627 10.6606 449.721 11.2174 449.91 11.6781C450.099 12.1388 450.372 12.4902 450.73 12.7321C451.088 12.9741 451.523 13.095 452.033 13.095C452.484 13.095 452.865 13.0221 453.176 12.8763C453.491 12.7271 453.73 12.5167 453.892 12.2449C454.055 11.9731 454.136 11.6533 454.136 11.2854L454.593 11.3401H452.117V9.54531H456.507V10.8926C456.507 11.8041 456.313 12.5846 455.926 13.2342C455.541 13.8839 455.011 14.3827 454.335 14.7307C453.662 15.0787 452.888 15.2527 452.013 15.2527C451.042 15.2527 450.188 15.0422 449.453 14.6213C448.717 14.2004 448.144 13.6005 447.733 12.8216C447.322 12.0394 447.116 11.1114 447.116 10.0375C447.116 9.20227 447.24 8.46151 447.489 7.8152C447.738 7.16558 448.084 6.61539 448.528 6.16463C448.975 5.71387 449.492 5.37249 450.079 5.14048C450.669 4.90848 451.304 4.79247 451.983 4.79247C452.573 4.79247 453.122 4.87699 453.629 5.04602C454.139 5.21506 454.59 5.45369 454.981 5.76193C455.376 6.07017 455.695 6.43641 455.941 6.86065C456.186 7.2849 456.338 7.75057 456.398 8.25767H453.907ZM457.958 15.1135V4.93168H465.057V6.93026H460.419V9.01832H464.694V11.0219H460.419V13.1149H465.057V15.1135H457.958ZM472.102 7.98423C472.069 7.61965 471.921 7.33627 471.66 7.13409C471.401 6.9286 471.031 6.82585 470.551 6.82585C470.233 6.82585 469.968 6.86728 469.755 6.95014C469.543 7.033 469.384 7.14735 469.278 7.29318C469.172 7.4357 469.117 7.59976 469.114 7.78537C469.107 7.93783 469.137 8.07206 469.204 8.18807C469.273 8.30407 469.373 8.40682 469.502 8.49631C469.634 8.58248 469.794 8.65871 469.979 8.725C470.165 8.79129 470.374 8.84929 470.606 8.89901L471.481 9.09787C471.984 9.20724 472.428 9.35308 472.813 9.53537C473.201 9.71766 473.526 9.93475 473.787 10.1866C474.053 10.4385 474.253 10.7286 474.389 11.0567C474.525 11.3848 474.594 11.7527 474.598 12.1604C474.594 12.8034 474.432 13.3552 474.111 13.8159C473.789 14.2766 473.327 14.6296 472.723 14.8749C472.124 15.1201 471.399 15.2428 470.551 15.2428C469.699 15.2428 468.957 15.1152 468.324 14.8599C467.691 14.6047 467.198 14.217 466.847 13.6966C466.496 13.1762 466.315 12.5183 466.305 11.7229H468.662C468.682 12.051 468.769 12.3244 468.925 12.5432C469.081 12.7619 469.295 12.9277 469.567 13.0403C469.842 13.153 470.16 13.2094 470.521 13.2094C470.853 13.2094 471.134 13.1646 471.366 13.0751C471.602 12.9857 471.782 12.8614 471.908 12.7023C472.034 12.5432 472.099 12.3609 472.102 12.1554C472.099 11.9632 472.039 11.7991 471.923 11.6632C471.807 11.524 471.628 11.4047 471.386 11.3053C471.147 11.2025 470.843 11.108 470.471 11.0219L469.407 10.7733C468.526 10.5711 467.831 10.2446 467.324 9.79389C466.817 9.33982 466.565 8.72666 466.569 7.9544C466.565 7.32467 466.734 6.77282 467.076 6.29886C467.417 5.82491 467.889 5.45535 468.493 5.1902C469.096 4.92505 469.784 4.79247 470.556 4.79247C471.345 4.79247 472.029 4.9267 472.609 5.19517C473.192 5.46032 473.645 5.83319 473.966 6.31378C474.288 6.79437 474.452 7.35118 474.459 7.98423H472.102Z" fill="black"/>
<path d="M17.6653 389.778L11.2306 367.96H17.8357L20.8187 381.383H20.9891L24.5261 367.96H29.7249L33.2619 381.426H33.4323L36.4153 367.96H43.0204L36.5857 389.778H30.9181L27.2107 377.591H27.0403L23.3329 389.778H17.6653ZM44.9806 389.778V385.517L53.1198 378.784C53.6596 378.337 54.1212 377.918 54.5048 377.527C54.8954 377.129 55.1937 376.721 55.3996 376.302C55.6127 375.883 55.7192 375.418 55.7192 374.906C55.7192 374.345 55.5985 373.866 55.357 373.468C55.1226 373.07 54.7959 372.765 54.3769 372.552C53.9579 372.332 53.4749 372.222 52.928 372.222C52.3812 372.222 51.8982 372.332 51.4792 372.552C51.0672 372.772 50.7476 373.095 50.5204 373.521C50.2931 373.947 50.1795 374.466 50.1795 375.077H44.5545C44.5545 373.543 44.8989 372.222 45.5878 371.114C46.2768 370.006 47.2498 369.153 48.5069 368.557C49.764 367.96 51.2377 367.662 52.928 367.662C54.6752 367.662 56.188 367.942 57.4664 368.504C58.7519 369.058 59.7427 369.839 60.4387 370.847C61.1418 371.856 61.4934 373.038 61.4934 374.395C61.4934 375.233 61.3194 376.067 60.9714 376.898C60.6234 377.722 59.9984 378.635 59.0964 379.636C58.1944 380.638 56.9124 381.831 55.2505 383.216L53.205 384.92V385.048H61.7278V389.778H44.9806Z" fill="black"/>
<path d="M449.234 50.895V51.973H442.626C442.682 51.2077 442.799 50.573 442.976 50.069C443.153 49.5557 443.433 49.1077 443.816 48.725C444.208 48.3423 444.74 47.969 445.412 47.605L446.714 46.891C447.153 46.6483 447.484 46.3683 447.708 46.051C447.932 45.7243 448.044 45.3463 448.044 44.917C448.044 44.3663 447.895 43.9183 447.596 43.573C447.297 43.2183 446.835 43.041 446.21 43.041C445.491 43.041 444.969 43.265 444.642 43.713C444.315 44.161 444.129 44.7443 444.082 45.463H442.85C442.887 44.343 443.186 43.4797 443.746 42.873C444.315 42.2663 445.151 41.963 446.252 41.963C446.924 41.963 447.484 42.0983 447.932 42.369C448.389 42.6303 448.73 42.985 448.954 43.433C449.187 43.8717 449.304 44.3663 449.304 44.917C449.304 46.1677 448.609 47.1617 447.218 47.899L445.818 48.641C445.23 48.9583 444.791 49.299 444.502 49.663C444.222 50.0177 444.059 50.4283 444.012 50.895H449.234ZM453.66 51.973V50.069H455.564V52.463C455.564 53.023 455.406 53.4663 455.088 53.793C454.78 54.1197 454.318 54.283 453.702 54.283H453.45V53.569H453.674C454.412 53.569 454.78 53.2143 454.78 52.505V51.973H453.66ZM464.051 51.973V49.481H459.823V48.221L464.163 42.103H465.241V48.417H466.711V49.481H465.241V51.973H464.051ZM460.845 48.417H464.051V43.881L460.845 48.417ZM475.127 44.483H473.909C473.816 44.0537 473.643 43.699 473.391 43.419C473.148 43.139 472.775 42.999 472.271 42.999C471.534 42.999 470.96 43.3583 470.549 44.077C470.148 44.7863 469.947 45.7663 469.947 47.017C470.162 46.6343 470.484 46.3217 470.913 46.079C471.352 45.8363 471.846 45.715 472.397 45.715C473.022 45.715 473.55 45.8643 473.979 46.163C474.418 46.4523 474.749 46.835 474.973 47.311C475.206 47.787 475.323 48.3003 475.323 48.851C475.323 49.439 475.202 49.9897 474.959 50.503C474.716 51.0163 474.357 51.4317 473.881 51.749C473.405 52.0663 472.822 52.225 472.131 52.225C471.487 52.225 470.946 52.0943 470.507 51.833C470.078 51.5623 469.732 51.1983 469.471 50.741C469.21 50.2743 469.023 49.747 468.911 49.159C468.799 48.571 468.743 47.9503 468.743 47.297C468.743 45.6077 469.056 44.2963 469.681 43.363C470.306 42.4297 471.198 41.963 472.355 41.963C473.111 41.963 473.727 42.1823 474.203 42.621C474.688 43.0597 474.996 43.6803 475.127 44.483ZM472.117 46.751C471.725 46.751 471.375 46.849 471.067 47.045C470.759 47.241 470.516 47.507 470.339 47.843C470.162 48.1697 470.073 48.543 470.073 48.963C470.073 49.383 470.162 49.761 470.339 50.097C470.516 50.433 470.759 50.699 471.067 50.895C471.375 51.091 471.725 51.189 472.117 51.189C472.733 51.189 473.214 50.9743 473.559 50.545C473.904 50.1157 474.077 49.5883 474.077 48.963C474.077 48.3377 473.904 47.815 473.559 47.395C473.214 46.9657 472.733 46.751 472.117 46.751ZM482.213 46.695C483.343 47.255 483.907 48.0717 483.907 49.145C483.907 49.7517 483.767 50.2883 483.487 50.755C483.217 51.2123 482.829 51.5717 482.325 51.833C481.831 52.0943 481.247 52.225 480.575 52.225C479.922 52.225 479.343 52.0943 478.839 51.833C478.345 51.5717 477.953 51.2123 477.663 50.755C477.383 50.2883 477.243 49.7517 477.243 49.145C477.243 48.0717 477.813 47.255 478.951 46.695C478.503 46.4243 478.163 46.1397 477.929 45.841C477.705 45.533 477.593 45.1223 477.593 44.609C477.593 44.0863 477.719 43.629 477.971 43.237C478.233 42.8357 478.587 42.523 479.035 42.299C479.493 42.075 480.006 41.963 480.575 41.963C481.173 41.963 481.691 42.075 482.129 42.299C482.577 42.523 482.927 42.8357 483.179 43.237C483.431 43.6383 483.557 44.1003 483.557 44.623C483.557 45.0897 483.459 45.4723 483.263 45.771C483.077 46.0603 482.727 46.3683 482.213 46.695ZM480.575 42.999C479.997 42.999 479.553 43.1577 479.245 43.475C478.937 43.7923 478.783 44.175 478.783 44.623C478.783 45.0523 478.933 45.4257 479.231 45.743C479.53 46.051 479.978 46.205 480.575 46.205C481.098 46.205 481.527 46.065 481.863 45.785C482.199 45.4957 482.367 45.1177 482.367 44.651C482.367 44.147 482.204 43.7457 481.877 43.447C481.56 43.1483 481.126 42.999 480.575 42.999ZM480.575 47.241C480.193 47.241 479.838 47.3203 479.511 47.479C479.185 47.6283 478.923 47.8477 478.727 48.137C478.531 48.4263 478.433 48.781 478.433 49.201C478.433 49.6023 478.527 49.9523 478.713 50.251C478.9 50.5497 479.152 50.783 479.469 50.951C479.796 51.1097 480.155 51.189 480.547 51.189C481.191 51.189 481.714 51.007 482.115 50.643C482.517 50.2697 482.717 49.7843 482.717 49.187C482.717 48.7577 482.619 48.403 482.423 48.123C482.227 47.8337 481.966 47.6143 481.639 47.465C481.313 47.3157 480.958 47.241 480.575 47.241ZM488.278 50.069H490.182V51.973H488.278V50.069ZM495.504 42.187H500.628V43.265H496.512L496.106 46.121C496.377 45.8783 496.675 45.7103 497.002 45.617C497.329 45.5237 497.66 45.477 497.996 45.477C498.584 45.477 499.116 45.6123 499.592 45.883C500.068 46.1443 500.446 46.5223 500.726 47.017C501.006 47.5023 501.146 48.0857 501.146 48.767C501.146 49.4297 501.006 50.0223 500.726 50.545C500.455 51.0677 500.068 51.4783 499.564 51.777C499.06 52.0757 498.453 52.225 497.744 52.225C497.464 52.225 497.151 52.1877 496.806 52.113C496.461 52.0383 496.12 51.9077 495.784 51.721C495.457 51.525 495.173 51.2543 494.93 50.909C494.687 50.5637 494.529 50.1203 494.454 49.579H495.7C495.98 50.6243 496.661 51.147 497.744 51.147C498.453 51.147 498.985 50.9323 499.34 50.503C499.704 50.0643 499.886 49.5043 499.886 48.823C499.886 48.1417 499.713 47.5863 499.368 47.157C499.032 46.7277 498.505 46.513 497.786 46.513C497.394 46.513 497.044 46.5923 496.736 46.751C496.437 46.9003 496.157 47.1477 495.896 47.493H494.776L495.504 42.187ZM507.322 51.973V49.481H503.094V48.221L507.434 42.103H508.512V48.417H509.982V49.481H508.512V51.973H507.322ZM504.116 48.417H507.322V43.881L504.116 48.417Z" fill="black"/>
</svg>
