<svg width="777" height="414" viewBox="0 0 777 414" fill="none" xmlns="http://www.w3.org/2000/svg">
<rect x="420.703" y="0.5" width="177.398" height="72.8486" fill="#D9D9D9" stroke="black"/>
<rect x="0.5" y="0.5" width="419.203" height="35.9243" fill="#D9D9D9" stroke="black"/>
<rect x="0.5" y="37.4243" width="419.203" height="109.773" fill="#D9D9D9" stroke="black"/>
<rect x="0.5" y="148.197" width="419.203" height="35.9243" fill="#D9D9D9" stroke="black"/>
<rect x="0.5" y="185.122" width="419.203" height="155.649" fill="#D9D9D9" stroke="black"/>
<rect x="0.5" y="341.77" width="225.759" height="71.7297" fill="#D9D9D9" stroke="black"/>
<rect x="227.259" y="341.77" width="123.664" height="71.7297" fill="#D9D9D9" stroke="black"/>
<rect x="351.923" y="341.77" width="111.842" height="71.7297" fill="#D9D9D9" stroke="black"/>
<rect x="464.766" y="341.77" width="122.589" height="71.7297" fill="#D9D9D9" stroke="black"/>
<rect x="588.355" y="341.77" width="112.917" height="71.7297" fill="#D9D9D9" stroke="black"/>
<rect x="702.272" y="341.77" width="74.2282" height="71.7297" fill="#D9D9D9" stroke="black"/>
<rect x="420.703" y="74.3486" width="177.398" height="72.8486" fill="#D9D9D9" stroke="black"/>
<rect x="420.703" y="222.046" width="177.398" height="35.9243" fill="#D9D9D9" stroke="black"/>
<rect x="420.703" y="295.895" width="177.398" height="44.8757" fill="#D9D9D9" stroke="black"/>
<rect x="420.703" y="148.197" width="177.398" height="72.8486" fill="#D9D9D9" stroke="black"/>
<rect x="420.703" y="258.97" width="177.398" height="35.9243" fill="#D9D9D9" stroke="black"/>
<rect x="599.102" y="0.5" width="177.398" height="72.8486" fill="#D9D9D9" stroke="black"/>
<rect x="599.102" y="74.3486" width="177.398" height="72.8486" fill="#D9D9D9" stroke="black"/>
<rect x="599.102" y="222.046" width="177.398" height="35.9243" fill="#D9D9D9" stroke="black"/>
<rect x="599.102" y="295.895" width="177.398" height="44.8757" fill="#D9D9D9" stroke="black"/>
<rect x="599.102" y="148.197" width="177.398" height="72.8486" fill="#D9D9D9" stroke="black"/>
<rect x="599.102" y="258.97" width="177.398" height="35.9243" fill="#D9D9D9" stroke="black"/>
<path d="M426.639 15.1189L423.676 4.93708H426.396L427.932 11.609H428.016L429.771 4.93708H431.989L433.744 11.6239H433.828L435.369 4.93708H438.084L435.126 15.1189H432.754L430.92 8.94418H430.84L429.006 15.1189H426.639ZM440.195 15.1189H437.551L440.986 4.93708H444.262L447.698 15.1189H445.053L442.661 7.50242H442.582L440.195 15.1189ZM439.842 11.1118H445.371V12.9811H439.842V11.1118ZM454.997 8.26307C454.941 8.05427 454.858 7.87032 454.749 7.71123C454.639 7.54882 454.505 7.41127 454.346 7.29858C454.187 7.18589 454.004 7.10138 453.799 7.04503C453.593 6.98537 453.368 6.95554 453.123 6.95554C452.629 6.95554 452.201 7.07486 451.84 7.3135C451.482 7.55213 451.205 7.90015 451.01 8.35753C450.814 8.8116 450.717 9.36345 450.717 10.0131C450.717 10.666 450.811 11.2228 451 11.6835C451.189 12.1442 451.462 12.4956 451.82 12.7375C452.178 12.9795 452.612 13.1004 453.123 13.1004C453.574 13.1004 453.955 13.0275 454.266 12.8817C454.581 12.7325 454.82 12.5221 454.982 12.2503C455.145 11.9785 455.226 11.6587 455.226 11.2908L455.683 11.3455H453.207V9.55071H457.597V10.898C457.597 11.8095 457.403 12.59 457.016 13.2396C456.631 13.8893 456.101 14.3881 455.425 14.7361C454.752 15.0841 453.978 15.2581 453.103 15.2581C452.132 15.2581 451.278 15.0476 450.543 14.6267C449.807 14.2058 449.233 13.6059 448.822 12.827C448.411 12.0448 448.206 11.1168 448.206 10.0429C448.206 9.20767 448.33 8.46691 448.579 7.8206C448.827 7.17098 449.174 6.62079 449.618 6.17003C450.065 5.71928 450.582 5.37789 451.169 5.14588C451.759 4.91388 452.394 4.79787 453.073 4.79787C453.663 4.79787 454.212 4.88239 454.719 5.05142C455.229 5.22046 455.68 5.4591 456.071 5.76733C456.465 6.07557 456.785 6.44181 457.03 6.86606C457.276 7.2903 457.428 7.75597 457.488 8.26307H454.997ZM459.048 15.1189V4.93708H466.147V6.93566H461.509V9.02373H465.784V11.0273H461.509V13.1203H466.147V15.1189H459.048ZM473.192 7.98963C473.159 7.62505 473.011 7.34167 472.749 7.13949C472.491 6.934 472.121 6.83125 471.641 6.83125C471.323 6.83125 471.057 6.87268 470.845 6.95554C470.633 7.0384 470.474 7.15275 470.368 7.29858C470.262 7.4411 470.207 7.60517 470.204 7.79077C470.197 7.94323 470.227 8.07747 470.293 8.19347C470.363 8.30947 470.462 8.41222 470.592 8.50171C470.724 8.58788 470.883 8.66411 471.069 8.7304C471.255 8.79669 471.463 8.85469 471.695 8.90441L472.57 9.10327C473.074 9.21265 473.518 9.35848 473.903 9.54077C474.291 9.72306 474.615 9.94016 474.877 10.192C475.142 10.4439 475.343 10.734 475.479 11.0621C475.615 11.3902 475.684 11.7581 475.688 12.1658C475.684 12.8088 475.522 13.3606 475.2 13.8213C474.879 14.282 474.417 14.635 473.813 14.8803C473.213 15.1255 472.489 15.2482 471.641 15.2482C470.789 15.2482 470.047 15.1206 469.413 14.8653C468.78 14.6101 468.288 14.2224 467.937 13.702C467.586 13.1816 467.405 12.5237 467.395 11.7283H469.752C469.771 12.0564 469.859 12.3298 470.015 12.5486C470.171 12.7673 470.385 12.9331 470.656 13.0457C470.931 13.1584 471.25 13.2148 471.611 13.2148C471.942 13.2148 472.224 13.17 472.456 13.0805C472.691 12.9911 472.872 12.8668 472.998 12.7077C473.124 12.5486 473.189 12.3663 473.192 12.1608C473.189 11.9686 473.129 11.8045 473.013 11.6686C472.897 11.5294 472.718 11.4101 472.476 11.3107C472.237 11.2079 471.932 11.1135 471.561 11.0273L470.497 10.7787C469.616 10.5765 468.921 10.2501 468.414 9.79929C467.907 9.34522 467.655 8.73206 467.658 7.95981C467.655 7.33007 467.824 6.77822 468.166 6.30427C468.507 5.83031 468.979 5.46075 469.582 5.1956C470.186 4.93045 470.873 4.79787 471.646 4.79787C472.435 4.79787 473.119 4.93211 473.699 5.20057C474.282 5.46572 474.735 5.83859 475.056 6.31918C475.378 6.79977 475.542 7.35659 475.548 7.98963H473.192Z" fill="black"/>
<path d="M17.6928 391.53L11.2582 369.712H17.8633L20.8463 383.135H21.0167L24.5536 369.712H29.7525L33.2894 383.177H33.4599L36.4428 369.712H43.048L36.6133 391.53H30.9457L27.2383 379.342H27.0678L23.3605 391.53H17.6928ZM45.0082 391.53V387.268L53.1474 380.535C53.6872 380.088 54.1488 379.669 54.5323 379.278C54.923 378.881 55.2213 378.472 55.4272 378.053C55.6403 377.634 55.7468 377.169 55.7468 376.658C55.7468 376.096 55.6261 375.617 55.3846 375.219C55.1502 374.822 54.8235 374.516 54.4045 374.303C53.9855 374.083 53.5025 373.973 52.9556 373.973C52.4088 373.973 51.9258 374.083 51.5068 374.303C51.0948 374.523 50.7752 374.846 50.548 375.273C50.3207 375.699 50.2071 376.217 50.2071 376.828H44.5821C44.5821 375.294 44.9265 373.973 45.6154 372.865C46.3044 371.757 47.2774 370.905 48.5345 370.308C49.7916 369.712 51.2653 369.413 52.9556 369.413C54.7028 369.413 56.2156 369.694 57.494 370.255C58.7795 370.809 59.7703 371.59 60.4663 372.599C61.1694 373.607 61.521 374.79 61.521 376.146C61.521 376.984 61.347 377.819 60.999 378.65C60.6509 379.474 60.0259 380.386 59.124 381.388C58.222 382.389 56.94 383.582 55.2781 384.967L53.2326 386.672V386.8H61.7553V391.53H45.0082Z" fill="black"/>
<path d="M450.374 51.0842V52.1622H443.766C443.822 51.3968 443.938 50.7622 444.116 50.2582C444.293 49.7448 444.573 49.2968 444.956 48.9142C445.348 48.5315 445.88 48.1582 446.552 47.7942L447.854 47.0802C448.292 46.8375 448.624 46.5575 448.848 46.2402C449.072 45.9135 449.184 45.5355 449.184 45.1062C449.184 44.5555 449.034 44.1075 448.736 43.7622C448.437 43.4075 447.975 43.2302 447.35 43.2302C446.631 43.2302 446.108 43.4542 445.782 43.9022C445.455 44.3502 445.268 44.9335 445.222 45.6522H443.99C444.027 44.5322 444.326 43.6688 444.886 43.0622C445.455 42.4555 446.29 42.1522 447.392 42.1522C448.064 42.1522 448.624 42.2875 449.072 42.5582C449.529 42.8195 449.87 43.1742 450.094 43.6222C450.327 44.0608 450.444 44.5555 450.444 45.1062C450.444 46.3568 449.748 47.3508 448.358 48.0882L446.958 48.8302C446.37 49.1475 445.931 49.4882 445.642 49.8522C445.362 50.2068 445.198 50.6175 445.152 51.0842H450.374ZM454.8 52.1622V50.2582H456.704V52.6522C456.704 53.2122 456.545 53.6555 456.228 53.9822C455.92 54.3088 455.458 54.4722 454.842 54.4722H454.59V53.7582H454.814C455.551 53.7582 455.92 53.4035 455.92 52.6942V52.1622H454.8ZM465.19 52.1622V49.6702H460.962V48.4102L465.302 42.2922H466.38V48.6062H467.85V49.6702H466.38V52.1622H465.19ZM461.984 48.6062H465.19V44.0702L461.984 48.6062ZM476.267 44.6722H475.049C474.955 44.2428 474.783 43.8882 474.531 43.6082C474.288 43.3282 473.915 43.1882 473.411 43.1882C472.673 43.1882 472.099 43.5475 471.689 44.2662C471.287 44.9755 471.087 45.9555 471.087 47.2062C471.301 46.8235 471.623 46.5108 472.053 46.2682C472.491 46.0255 472.986 45.9042 473.537 45.9042C474.162 45.9042 474.689 46.0535 475.119 46.3522C475.557 46.6415 475.889 47.0242 476.113 47.5002C476.346 47.9762 476.463 48.4895 476.463 49.0402C476.463 49.6282 476.341 50.1788 476.099 50.6922C475.856 51.2055 475.497 51.6208 475.021 51.9382C474.545 52.2555 473.961 52.4142 473.271 52.4142C472.627 52.4142 472.085 52.2835 471.647 52.0222C471.217 51.7515 470.872 51.3875 470.611 50.9302C470.349 50.4635 470.163 49.9362 470.051 49.3482C469.939 48.7602 469.883 48.1395 469.883 47.4862C469.883 45.7968 470.195 44.4855 470.821 43.5522C471.446 42.6188 472.337 42.1522 473.495 42.1522C474.251 42.1522 474.867 42.3715 475.343 42.8102C475.828 43.2488 476.136 43.8695 476.267 44.6722ZM473.257 46.9402C472.865 46.9402 472.515 47.0382 472.207 47.2342C471.899 47.4302 471.656 47.6962 471.479 48.0322C471.301 48.3588 471.213 48.7322 471.213 49.1522C471.213 49.5722 471.301 49.9502 471.479 50.2862C471.656 50.6222 471.899 50.8882 472.207 51.0842C472.515 51.2802 472.865 51.3782 473.257 51.3782C473.873 51.3782 474.353 51.1635 474.699 50.7342C475.044 50.3048 475.217 49.7775 475.217 49.1522C475.217 48.5268 475.044 48.0042 474.699 47.5842C474.353 47.1548 473.873 46.9402 473.257 46.9402ZM483.353 46.8842C484.482 47.4442 485.047 48.2608 485.047 49.3342C485.047 49.9408 484.907 50.4775 484.627 50.9442C484.356 51.4015 483.969 51.7608 483.465 52.0222C482.97 52.2835 482.387 52.4142 481.715 52.4142C481.062 52.4142 480.483 52.2835 479.979 52.0222C479.484 51.7608 479.092 51.4015 478.803 50.9442C478.523 50.4775 478.383 49.9408 478.383 49.3342C478.383 48.2608 478.952 47.4442 480.091 46.8842C479.643 46.6135 479.302 46.3288 479.069 46.0302C478.845 45.7222 478.733 45.3115 478.733 44.7982C478.733 44.2755 478.859 43.8182 479.111 43.4262C479.372 43.0248 479.727 42.7122 480.175 42.4882C480.632 42.2642 481.146 42.1522 481.715 42.1522C482.312 42.1522 482.83 42.2642 483.269 42.4882C483.717 42.7122 484.067 43.0248 484.319 43.4262C484.571 43.8275 484.697 44.2895 484.697 44.8122C484.697 45.2788 484.599 45.6615 484.403 45.9602C484.216 46.2495 483.866 46.5575 483.353 46.8842ZM481.715 43.1882C481.136 43.1882 480.693 43.3468 480.385 43.6642C480.077 43.9815 479.923 44.3642 479.923 44.8122C479.923 45.2415 480.072 45.6148 480.371 45.9322C480.67 46.2402 481.118 46.3942 481.715 46.3942C482.238 46.3942 482.667 46.2542 483.003 45.9742C483.339 45.6848 483.507 45.3068 483.507 44.8402C483.507 44.3362 483.344 43.9348 483.017 43.6362C482.7 43.3375 482.266 43.1882 481.715 43.1882ZM481.715 47.4302C481.332 47.4302 480.978 47.5095 480.651 47.6682C480.324 47.8175 480.063 48.0368 479.867 48.3262C479.671 48.6155 479.573 48.9702 479.573 49.3902C479.573 49.7915 479.666 50.1415 479.853 50.4402C480.04 50.7388 480.292 50.9722 480.609 51.1402C480.936 51.2988 481.295 51.3782 481.687 51.3782C482.331 51.3782 482.854 51.1962 483.255 50.8322C483.656 50.4588 483.857 49.9735 483.857 49.3762C483.857 48.9468 483.759 48.5922 483.563 48.3122C483.367 48.0228 483.106 47.8035 482.779 47.6542C482.452 47.5048 482.098 47.4302 481.715 47.4302ZM489.417 50.2582H491.321V52.1622H489.417V50.2582ZM496.644 42.3762H501.768V43.4542H497.652L497.246 46.3102C497.516 46.0675 497.815 45.8995 498.142 45.8062C498.468 45.7128 498.8 45.6662 499.136 45.6662C499.724 45.6662 500.256 45.8015 500.732 46.0722C501.208 46.3335 501.586 46.7115 501.866 47.2062C502.146 47.6915 502.286 48.2748 502.286 48.9562C502.286 49.6188 502.146 50.2115 501.866 50.7342C501.595 51.2568 501.208 51.6675 500.704 51.9662C500.2 52.2648 499.593 52.4142 498.884 52.4142C498.604 52.4142 498.291 52.3768 497.946 52.3022C497.6 52.2275 497.26 52.0968 496.924 51.9102C496.597 51.7142 496.312 51.4435 496.07 51.0982C495.827 50.7528 495.668 50.3095 495.594 49.7682H496.84C497.12 50.8135 497.801 51.3362 498.884 51.3362C499.593 51.3362 500.125 51.1215 500.48 50.6922C500.844 50.2535 501.026 49.6935 501.026 49.0122C501.026 48.3308 500.853 47.7755 500.508 47.3462C500.172 46.9168 499.644 46.7022 498.926 46.7022C498.534 46.7022 498.184 46.7815 497.876 46.9402C497.577 47.0895 497.297 47.3368 497.036 47.6822H495.916L496.644 42.3762ZM508.462 52.1622V49.6702H504.234V48.4102L508.574 42.2922H509.652V48.6062H511.122V49.6702H509.652V52.1622H508.462ZM505.256 48.6062H508.462V44.0702L505.256 48.6062Z" fill="black"/>
</svg>
