<svg width="777" height="414" viewBox="0 0 777 414" fill="none" xmlns="http://www.w3.org/2000/svg">
<path d="M3.21165 15.1189L0.24858 4.93709H2.96804L4.50426 11.609H4.58878L6.34375 4.93709H8.56108L10.3161 11.6239H10.4006L11.9418 4.93709H14.6562L11.6982 15.1189H9.3267L7.49219 8.9442H7.41264L5.57812 15.1189H3.21165ZM15.6531 15.1189V13.349L19.3668 10.0976C19.6452 9.84571 19.8822 9.61536 20.0778 9.40655C20.2733 9.19443 20.4225 8.98231 20.5252 8.77019C20.628 8.55475 20.6793 8.32109 20.6793 8.0692C20.6793 7.78747 20.618 7.54718 20.4954 7.34832C20.3728 7.14614 20.2037 6.99036 19.9883 6.88099C19.7728 6.77161 19.5259 6.71692 19.2475 6.71692C18.9658 6.71692 18.7189 6.77492 18.5067 6.89093C18.2946 7.00362 18.1289 7.16768 18.0096 7.38312C17.8936 7.59855 17.8356 7.86039 17.8356 8.16863H15.5039C15.5039 7.47592 15.6597 6.87767 15.9712 6.37388C16.2828 5.8701 16.7203 5.48231 17.2837 5.21053C17.8505 4.93544 18.5084 4.79789 19.2575 4.79789C20.0297 4.79789 20.7009 4.92715 21.271 5.18567C21.841 5.4442 22.2818 5.80546 22.5934 6.26948C22.9083 6.73018 23.0657 7.26546 23.0657 7.8753C23.0657 8.26309 22.9878 8.64756 22.832 9.02871C22.6763 9.40987 22.3962 9.8308 21.9918 10.2915C21.5908 10.7522 21.0207 11.304 20.2816 11.947L19.0636 13.0706V13.1352H23.19V15.1189H15.6531Z" fill="black"/>
<rect x="420.703" y="0.5" width="177.398" height="72.8486" fill="#D9D9D9" stroke="black"/>
<rect x="0.5" y="0.5" width="419.203" height="35.9243" fill="#D9D9D9" stroke="black"/>
<rect x="0.5" y="37.4243" width="419.203" height="109.773" fill="#D9D9D9" stroke="black"/>
<rect x="0.5" y="148.197" width="419.203" height="35.9243" fill="#D9D9D9" stroke="black"/>
<rect x="0.5" y="185.122" width="419.203" height="155.649" fill="#D9D9D9" stroke="black"/>
<rect x="0.5" y="341.77" width="225.759" height="71.7297" fill="#D9D9D9" stroke="black"/>
<rect x="227.26" y="341.77" width="123.664" height="71.7297" fill="#D9D9D9" stroke="black"/>
<rect x="351.923" y="341.77" width="111.842" height="71.7297" fill="#D9D9D9" stroke="black"/>
<rect x="464.766" y="341.77" width="122.589" height="71.7297" fill="#D9D9D9" stroke="black"/>
<rect x="588.355" y="341.77" width="112.917" height="71.7297" fill="#D9D9D9" stroke="black"/>
<path d="M17.6931 391.53L11.2584 369.711H17.8635L20.8465 383.135H21.017L24.5539 369.711H29.7528L33.2897 383.177H33.4601L36.4431 369.711H43.0482L36.6135 391.53H30.9459L27.2385 379.342H27.0681L23.3607 391.53H17.6931ZM45.0084 391.53V387.268L53.1476 380.535C53.6874 380.088 54.1491 379.669 54.5326 379.278C54.9232 378.881 55.2215 378.472 55.4275 378.053C55.6405 377.634 55.7471 377.169 55.7471 376.658C55.7471 376.096 55.6263 375.617 55.3849 375.219C55.1505 374.822 54.8238 374.516 54.4047 374.303C53.9857 374.083 53.5028 373.973 52.9559 373.973C52.409 373.973 51.926 374.083 51.507 374.303C51.0951 374.523 50.7755 374.846 50.5482 375.273C50.3209 375.699 50.2073 376.217 50.2073 376.828H44.5823C44.5823 375.294 44.9268 373.973 45.6157 372.865C46.3046 371.757 47.2776 370.905 48.5347 370.308C49.7918 369.711 51.2655 369.413 52.9559 369.413C54.703 369.413 56.2158 369.694 57.4942 370.255C58.7797 370.809 59.7705 371.59 60.4665 372.599C61.1697 373.607 61.5212 374.79 61.5212 376.146C61.5212 376.984 61.3472 377.819 60.9992 378.65C60.6512 379.474 60.0262 380.386 59.1242 381.388C58.2222 382.389 56.9403 383.582 55.2783 384.967L53.2329 386.672V386.8H61.7556V391.53H45.0084Z" fill="black"/>
<rect x="702.272" y="341.77" width="74.2282" height="71.7297" fill="#D9D9D9" stroke="black"/>
<rect x="420.703" y="74.3486" width="177.398" height="72.8486" fill="#D9D9D9" stroke="black"/>
<rect x="420.703" y="222.046" width="177.398" height="35.9243" fill="#D9D9D9" stroke="black"/>
<rect x="420.703" y="295.895" width="177.398" height="44.8757" fill="#D9D9D9" stroke="black"/>
<rect x="420.703" y="148.197" width="177.398" height="72.8486" fill="#D9D9D9" stroke="black"/>
<rect x="420.703" y="258.97" width="177.398" height="35.9243" fill="#D9D9D9" stroke="black"/>
<rect x="599.102" y="0.5" width="177.398" height="72.8486" fill="#D9D9D9" stroke="black"/>
<rect x="599.102" y="74.3486" width="177.398" height="72.8486" fill="#D9D9D9" stroke="black"/>
<rect x="599.102" y="222.046" width="177.398" height="35.9243" fill="#D9D9D9" stroke="black"/>
<rect x="599.102" y="295.895" width="177.398" height="44.8757" fill="#D9D9D9" stroke="black"/>
<rect x="599.102" y="148.197" width="177.398" height="72.8486" fill="#D9D9D9" stroke="black"/>
<rect x="599.102" y="258.97" width="177.398" height="35.9243" fill="#D9D9D9" stroke="black"/>
<path d="M426.639 15.1189L423.676 4.93709H426.395L427.932 11.609H428.016L429.771 4.93709H431.988L433.743 11.6239H433.828L435.369 4.93709H438.083L435.125 15.1189H432.754L430.919 8.9442H430.84L429.005 15.1189H426.639ZM440.195 15.1189H437.55L440.986 4.93709H444.262L447.697 15.1189H445.052L442.661 7.50243H442.582L440.195 15.1189ZM439.842 11.1118H445.371V12.9811H439.842V11.1118ZM454.997 8.26309C454.941 8.05428 454.858 7.87033 454.748 7.71124C454.639 7.54884 454.505 7.41129 454.346 7.2986C454.186 7.18591 454.004 7.10139 453.799 7.04505C453.593 6.98539 453.368 6.95556 453.123 6.95556C452.629 6.95556 452.201 7.07488 451.84 7.31351C451.482 7.55215 451.205 7.90016 451.01 8.35755C450.814 8.81162 450.716 9.36347 450.716 10.0131C450.716 10.666 450.811 11.2228 451 11.6835C451.189 12.1442 451.462 12.4956 451.82 12.7375C452.178 12.9795 452.612 13.1004 453.123 13.1004C453.573 13.1004 453.954 13.0275 454.266 12.8817C454.581 12.7325 454.82 12.5221 454.982 12.2503C455.144 11.9785 455.226 11.6587 455.226 11.2908L455.683 11.3455H453.207V9.55073H457.597V10.898C457.597 11.8095 457.403 12.59 457.015 13.2397C456.631 13.8893 456.101 14.3881 455.424 14.7361C454.752 15.0841 453.978 15.2581 453.103 15.2581C452.132 15.2581 451.278 15.0477 450.542 14.6267C449.807 14.2058 449.233 13.6059 448.822 12.827C448.411 12.0448 448.206 11.1168 448.206 10.0429C448.206 9.20769 448.33 8.46692 448.579 7.82062C448.827 7.17099 449.173 6.62081 449.618 6.17005C450.065 5.71929 450.582 5.37791 451.169 5.1459C451.759 4.91389 452.393 4.79789 453.073 4.79789C453.663 4.79789 454.211 4.88241 454.718 5.05144C455.229 5.22047 455.68 5.45911 456.071 5.76735C456.465 6.07559 456.785 6.44183 457.03 6.86607C457.275 7.29031 457.428 7.75599 457.488 8.26309H454.997ZM459.047 15.1189V4.93709H466.147V6.93567H461.508V9.02374H465.784V11.0273H461.508V13.1203H466.147V15.1189H459.047ZM473.192 7.98965C473.158 7.62507 473.011 7.34169 472.749 7.13951C472.491 6.93402 472.121 6.83127 471.64 6.83127C471.322 6.83127 471.057 6.8727 470.845 6.95556C470.633 7.03842 470.474 7.15277 470.368 7.2986C470.262 7.44112 470.207 7.60518 470.204 7.79079C470.197 7.94325 470.227 8.07748 470.293 8.19349C470.363 8.30949 470.462 8.41224 470.591 8.50172C470.724 8.5879 470.883 8.66413 471.069 8.73042C471.254 8.79671 471.463 8.85471 471.695 8.90442L472.57 9.10329C473.074 9.21266 473.518 9.3585 473.903 9.54079C474.29 9.72308 474.615 9.94017 474.877 10.1921C475.142 10.444 475.343 10.734 475.479 11.0621C475.614 11.3902 475.684 11.7581 475.687 12.1658C475.684 12.8088 475.522 13.3606 475.2 13.8213C474.879 14.282 474.416 14.635 473.813 14.8803C473.213 15.1255 472.489 15.2482 471.64 15.2482C470.789 15.2482 470.046 15.1206 469.413 14.8654C468.78 14.6102 468.288 14.2224 467.937 13.702C467.585 13.1816 467.405 12.5237 467.395 11.7283H469.751C469.771 12.0564 469.859 12.3298 470.015 12.5486C470.171 12.7673 470.384 12.9331 470.656 13.0458C470.931 13.1584 471.249 13.2148 471.611 13.2148C471.942 13.2148 472.224 13.17 472.456 13.0806C472.691 12.9911 472.872 12.8668 472.998 12.7077C473.124 12.5486 473.188 12.3663 473.192 12.1608C473.188 11.9686 473.129 11.8045 473.013 11.6686C472.897 11.5294 472.718 11.4101 472.476 11.3107C472.237 11.2079 471.932 11.1135 471.561 11.0273L470.497 10.7787C469.615 10.5765 468.921 10.2501 468.414 9.79931C467.907 9.34524 467.655 8.73207 467.658 7.95982C467.655 7.33009 467.824 6.77824 468.165 6.30428C468.507 5.83032 468.979 5.46077 469.582 5.19562C470.185 4.93046 470.873 4.79789 471.645 4.79789C472.434 4.79789 473.119 4.93212 473.699 5.20059C474.282 5.46574 474.734 5.83861 475.056 6.3192C475.377 6.79978 475.542 7.3566 475.548 7.98965H473.192Z" fill="black"/>
<path d="M434.184 44.6722H432.966C432.872 44.2428 432.7 43.8882 432.448 43.6082C432.205 43.3282 431.832 43.1882 431.328 43.1882C430.59 43.1882 430.016 43.5475 429.606 44.2662C429.204 44.9755 429.004 45.9555 429.004 47.2062C429.218 46.8235 429.54 46.5108 429.97 46.2682C430.408 46.0255 430.903 45.9042 431.454 45.9042C432.079 45.9042 432.606 46.0535 433.036 46.3522C433.474 46.6415 433.806 47.0242 434.03 47.5002C434.263 47.9762 434.38 48.4895 434.38 49.0402C434.38 49.6282 434.258 50.1788 434.016 50.6922C433.773 51.2055 433.414 51.6208 432.938 51.9382C432.462 52.2555 431.878 52.4142 431.188 52.4142C430.544 52.4142 430.002 52.2835 429.564 52.0222C429.134 51.7515 428.789 51.3875 428.528 50.9302C428.266 50.4635 428.08 49.9362 427.968 49.3482C427.856 48.7602 427.8 48.1395 427.8 47.4862C427.8 45.7968 428.112 44.4855 428.738 43.5522C429.363 42.6188 430.254 42.1522 431.412 42.1522C432.168 42.1522 432.784 42.3715 433.26 42.8102C433.745 43.2488 434.053 43.8695 434.184 44.6722ZM431.174 46.9402C430.782 46.9402 430.432 47.0382 430.124 47.2342C429.816 47.4302 429.573 47.6962 429.396 48.0322C429.218 48.3588 429.13 48.7322 429.13 49.1522C429.13 49.5722 429.218 49.9502 429.396 50.2862C429.573 50.6222 429.816 50.8882 430.124 51.0842C430.432 51.2802 430.782 51.3782 431.174 51.3782C431.79 51.3782 432.27 51.1635 432.616 50.7342C432.961 50.3048 433.134 49.7775 433.134 49.1522C433.134 48.5268 432.961 48.0042 432.616 47.5842C432.27 47.1548 431.79 46.9402 431.174 46.9402ZM440.416 52.1622V49.6702H436.188V48.4102L440.528 42.2922H441.606V48.6062H443.076V49.6702H441.606V52.1622H440.416ZM437.21 48.6062H440.416V44.0702L437.21 48.6062ZM447.334 52.1622V50.2582H449.238V52.6522C449.238 53.2122 449.08 53.6555 448.762 53.9822C448.454 54.3088 447.992 54.4722 447.376 54.4722H447.124V53.7582H447.348C448.086 53.7582 448.454 53.4035 448.454 52.6942V52.1622H447.334ZM454.561 42.3762H459.685V43.4542H455.569L455.163 46.3102C455.433 46.0675 455.732 45.8995 456.059 45.8062C456.385 45.7128 456.717 45.6662 457.053 45.6662C457.641 45.6662 458.173 45.8015 458.649 46.0722C459.125 46.3335 459.503 46.7115 459.783 47.2062C460.063 47.6915 460.203 48.2748 460.203 48.9562C460.203 49.6188 460.063 50.2115 459.783 50.7342C459.512 51.2568 459.125 51.6675 458.621 51.9662C458.117 52.2648 457.51 52.4142 456.801 52.4142C456.521 52.4142 456.208 52.3768 455.863 52.3022C455.517 52.2275 455.177 52.0968 454.841 51.9102C454.514 51.7142 454.229 51.4435 453.987 51.0982C453.744 50.7528 453.585 50.3095 453.511 49.7682H454.757C455.037 50.8135 455.718 51.3362 456.801 51.3362C457.51 51.3362 458.042 51.1215 458.397 50.6922C458.761 50.2535 458.943 49.6935 458.943 49.0122C458.943 48.3308 458.77 47.7755 458.425 47.3462C458.089 46.9168 457.561 46.7022 456.843 46.7022C456.451 46.7022 456.101 46.7815 455.793 46.9402C455.494 47.0895 455.214 47.3368 454.953 47.6822H453.833L454.561 42.3762ZM466.379 52.1622V49.6702H462.151V48.4102L466.491 42.2922H467.569V48.6062H469.039V49.6702H467.569V52.1622H466.379ZM463.173 48.6062H466.379V44.0702L463.173 48.6062ZM474.263 47.5282H473.577V46.4782C474.053 46.4968 474.473 46.4735 474.837 46.4082C475.21 46.3428 475.5 46.1935 475.705 45.9602C475.92 45.7175 476.027 45.3628 476.027 44.8962C476.027 44.3455 475.859 43.9302 475.523 43.6502C475.196 43.3702 474.776 43.2302 474.263 43.2302C473.638 43.2302 473.162 43.3982 472.835 43.7342C472.518 44.0608 472.35 44.5928 472.331 45.3302H471.099C471.118 44.2848 471.402 43.4962 471.953 42.9642C472.504 42.4228 473.274 42.1522 474.263 42.1522C475.15 42.1522 475.873 42.3762 476.433 42.8242C476.993 43.2722 477.273 43.9488 477.273 44.8542C477.273 45.3302 477.156 45.7548 476.923 46.1282C476.699 46.4922 476.349 46.7628 475.873 46.9402C476.461 47.1362 476.89 47.4348 477.161 47.8362C477.432 48.2375 477.567 48.7462 477.567 49.3622C477.567 49.9968 477.422 50.5428 477.133 51.0002C476.853 51.4575 476.461 51.8075 475.957 52.0502C475.462 52.2928 474.884 52.4142 474.221 52.4142C472.112 52.4142 471.001 51.3595 470.889 49.2502H472.135C472.172 49.9315 472.359 50.4495 472.695 50.8042C473.031 51.1588 473.554 51.3362 474.263 51.3362C474.982 51.3362 475.504 51.1448 475.831 50.7622C476.158 50.3702 476.321 49.9082 476.321 49.3762C476.321 48.1442 475.635 47.5282 474.263 47.5282ZM481.951 50.2582H483.855V52.1622H481.951V50.2582ZM493.196 46.8842C494.325 47.4442 494.89 48.2608 494.89 49.3342C494.89 49.9408 494.75 50.4775 494.47 50.9442C494.199 51.4015 493.812 51.7608 493.308 52.0222C492.813 52.2835 492.23 52.4142 491.558 52.4142C490.904 52.4142 490.326 52.2835 489.822 52.0222C489.327 51.7608 488.935 51.4015 488.646 50.9442C488.366 50.4775 488.226 49.9408 488.226 49.3342C488.226 48.2608 488.795 47.4442 489.934 46.8842C489.486 46.6135 489.145 46.3288 488.912 46.0302C488.688 45.7222 488.576 45.3115 488.576 44.7982C488.576 44.2755 488.702 43.8182 488.954 43.4262C489.215 43.0248 489.57 42.7122 490.018 42.4882C490.475 42.2642 490.988 42.1522 491.558 42.1522C492.155 42.1522 492.673 42.2642 493.112 42.4882C493.56 42.7122 493.91 43.0248 494.162 43.4262C494.414 43.8275 494.54 44.2895 494.54 44.8122C494.54 45.2788 494.442 45.6615 494.246 45.9602C494.059 46.2495 493.709 46.5575 493.196 46.8842ZM491.558 43.1882C490.979 43.1882 490.536 43.3468 490.228 43.6642C489.92 43.9815 489.766 44.3642 489.766 44.8122C489.766 45.2415 489.915 45.6148 490.214 45.9322C490.512 46.2402 490.96 46.3942 491.558 46.3942C492.08 46.3942 492.51 46.2542 492.846 45.9742C493.182 45.6848 493.35 45.3068 493.35 44.8402C493.35 44.3362 493.186 43.9348 492.86 43.6362C492.542 43.3375 492.108 43.1882 491.558 43.1882ZM491.558 47.4302C491.175 47.4302 490.82 47.5095 490.494 47.6682C490.167 47.8175 489.906 48.0368 489.71 48.3262C489.514 48.6155 489.416 48.9702 489.416 49.3902C489.416 49.7915 489.509 50.1415 489.696 50.4402C489.882 50.7388 490.134 50.9722 490.452 51.1402C490.778 51.2988 491.138 51.3782 491.53 51.3782C492.174 51.3782 492.696 51.1962 493.098 50.8322C493.499 50.4588 493.7 49.9735 493.7 49.3762C493.7 48.9468 493.602 48.5922 493.406 48.3122C493.21 48.0228 492.948 47.8035 492.622 47.6542C492.295 47.5048 491.94 47.4302 491.558 47.4302ZM500.996 52.1622V49.6702H496.768V48.4102L501.108 42.2922H502.186V48.6062H503.656V49.6702H502.186V52.1622H500.996ZM497.79 48.6062H500.996V44.0702L497.79 48.6062Z" fill="black"/>
</svg>
