<svg width="775" height="412" viewBox="0 0 775 412" fill="none" xmlns="http://www.w3.org/2000/svg">
<path d="M3.21165 15.1135L0.24858 4.93169H2.96804L4.50426 11.6036H4.58878L6.34375 4.93169H8.56108L10.3161 11.6185H10.4006L11.9418 4.93169H14.6562L11.6982 15.1135H9.3267L7.49219 8.93879H7.41264L5.57812 15.1135H3.21165ZM15.6531 15.1135V13.3436L19.3668 10.0922C19.6452 9.84031 19.8822 9.60996 20.0778 9.40115C20.2733 9.18903 20.4225 8.97691 20.5252 8.76479C20.628 8.54935 20.6793 8.31569 20.6793 8.06379C20.6793 7.78207 20.618 7.54178 20.4954 7.34291C20.3728 7.14074 20.2037 6.98496 19.9883 6.87558C19.7728 6.76621 19.5259 6.71152 19.2475 6.71152C18.9658 6.71152 18.7189 6.76952 18.5067 6.88553C18.2946 6.99822 18.1289 7.16228 18.0096 7.37771C17.8936 7.59315 17.8356 7.85499 17.8356 8.16323H15.5039C15.5039 7.47052 15.6597 6.87227 15.9712 6.36848C16.2828 5.86469 16.7203 5.47691 17.2837 5.20513C17.8505 4.93003 18.5084 4.79249 19.2575 4.79249C20.0297 4.79249 20.7009 4.92175 21.271 5.18027C21.841 5.43879 22.2818 5.80006 22.5934 6.26408C22.9083 6.72478 23.0657 7.26005 23.0657 7.8699C23.0657 8.25769 22.9878 8.64216 22.832 9.02331C22.6763 9.40447 22.3962 9.82539 21.9918 10.2861C21.5908 10.7468 21.0207 11.2986 20.2816 11.9416L19.0636 13.0652V13.1298H23.19V15.1135H15.6531Z" fill="black"/>
<rect x="419.622" y="0.5" width="176.939" height="72.4919" fill="#D9D9D9" stroke="black"/>
<rect x="0.5" y="0.5" width="418.122" height="35.7459" fill="#D9D9D9" stroke="black"/>
<rect x="0.5" y="37.2459" width="418.122" height="109.238" fill="#D9D9D9" stroke="black"/>
<rect x="0.5" y="147.484" width="418.122" height="35.7459" fill="#D9D9D9" stroke="black"/>
<rect x="0.5" y="184.23" width="418.122" height="154.892" fill="#D9D9D9" stroke="black"/>
<rect x="0.5" y="340.122" width="225.176" height="71.3784" fill="#D9D9D9" stroke="black"/>
<rect x="226.676" y="340.122" width="123.343" height="71.3784" fill="#D9D9D9" stroke="black"/>
<rect x="351.019" y="340.122" width="111.552" height="71.3784" fill="#D9D9D9" stroke="black"/>
<rect x="463.571" y="340.122" width="122.271" height="71.3784" fill="#D9D9D9" stroke="black"/>
<rect x="586.842" y="340.122" width="112.624" height="71.3784" fill="#D9D9D9" stroke="black"/>
<path d="M17.6653 389.778L11.2306 367.96H17.8357L20.8187 381.383H20.9891L24.5261 367.96H29.7249L33.2619 381.426H33.4323L36.4153 367.96H43.0204L36.5857 389.778H30.9181L27.2107 377.591H27.0403L23.3329 389.778H17.6653ZM44.9806 389.778V385.517L53.1198 378.784C53.6596 378.336 54.1212 377.917 54.5048 377.527C54.8954 377.129 55.1937 376.721 55.3996 376.302C55.6127 375.883 55.7192 375.417 55.7192 374.906C55.7192 374.345 55.5985 373.866 55.357 373.468C55.1226 373.07 54.7959 372.765 54.3769 372.552C53.9579 372.332 53.4749 372.221 52.928 372.221C52.3812 372.221 51.8982 372.332 51.4792 372.552C51.0672 372.772 50.7476 373.095 50.5204 373.521C50.2931 373.947 50.1795 374.466 50.1795 375.077H44.5545C44.5545 373.542 44.8989 372.221 45.5878 371.113C46.2768 370.006 47.2498 369.153 48.5069 368.557C49.764 367.96 51.2377 367.662 52.928 367.662C54.6752 367.662 56.188 367.942 57.4664 368.503C58.7519 369.057 59.7427 369.839 60.4387 370.847C61.1418 371.856 61.4934 373.038 61.4934 374.395C61.4934 375.233 61.3194 376.067 60.9714 376.898C60.6234 377.722 59.9984 378.635 59.0964 379.636C58.1944 380.638 56.9124 381.831 55.2505 383.216L53.205 384.92V385.048H61.7278V389.778H44.9806Z" fill="black"/>
<rect x="700.465" y="340.122" width="74.0346" height="71.3784" fill="#D9D9D9" stroke="black"/>
<rect x="419.622" y="73.9919" width="176.939" height="72.4919" fill="#D9D9D9" stroke="black"/>
<rect x="419.622" y="220.976" width="176.939" height="35.7459" fill="#D9D9D9" stroke="black"/>
<rect x="419.622" y="294.468" width="176.939" height="44.654" fill="#D9D9D9" stroke="black"/>
<rect x="419.622" y="147.484" width="176.939" height="72.4919" fill="#D9D9D9" stroke="black"/>
<rect x="419.622" y="257.722" width="176.939" height="35.7459" fill="#D9D9D9" stroke="black"/>
<rect x="597.561" y="0.5" width="176.939" height="72.4919" fill="#D9D9D9" stroke="black"/>
<rect x="597.561" y="73.9919" width="176.939" height="72.4919" fill="#D9D9D9" stroke="black"/>
<rect x="597.561" y="220.976" width="176.939" height="35.7459" fill="#D9D9D9" stroke="black"/>
<rect x="597.561" y="294.468" width="176.939" height="44.654" fill="#D9D9D9" stroke="black"/>
<rect x="597.561" y="147.484" width="176.939" height="72.4919" fill="#D9D9D9" stroke="black"/>
<rect x="597.561" y="257.722" width="176.939" height="35.7459" fill="#D9D9D9" stroke="black"/>
<path d="M425.549 15.1135L422.586 4.93169H425.305L426.842 11.6036H426.926L428.681 4.93169H430.898L432.653 11.6185H432.738L434.279 4.93169H436.994L434.036 15.1135H431.664L429.83 8.93879H429.75L427.916 15.1135H425.549ZM439.105 15.1135H436.46L439.896 4.93169H443.172L446.607 15.1135H443.963L441.571 7.49703H441.492L439.105 15.1135ZM438.752 11.1064H444.281V12.9757H438.752V11.1064ZM453.907 8.25769C453.851 8.04888 453.768 7.86493 453.658 7.70584C453.549 7.54343 453.415 7.40589 453.256 7.2932C453.097 7.18051 452.914 7.09599 452.709 7.03965C452.503 6.97999 452.278 6.95016 452.033 6.95016C451.539 6.95016 451.111 7.06948 450.75 7.30811C450.392 7.54675 450.115 7.89476 449.92 8.35215C449.724 8.80622 449.626 9.35806 449.626 10.0077C449.626 10.6606 449.721 11.2174 449.91 11.6781C450.099 12.1388 450.372 12.4902 450.73 12.7321C451.088 12.9741 451.522 13.095 452.033 13.095C452.483 13.095 452.865 13.0221 453.176 12.8763C453.491 12.7271 453.73 12.5167 453.892 12.2449C454.054 11.9731 454.136 11.6533 454.136 11.2854L454.593 11.3401H452.117V9.54533H456.507V10.8926C456.507 11.8041 456.313 12.5846 455.925 13.2342C455.541 13.8839 455.011 14.3827 454.335 14.7307C453.662 15.0787 452.888 15.2527 452.013 15.2527C451.042 15.2527 450.188 15.0423 449.452 14.6213C448.717 14.2004 448.143 13.6005 447.732 12.8216C447.321 12.0394 447.116 11.1114 447.116 10.0375C447.116 9.20229 447.24 8.46152 447.489 7.81521C447.737 7.16559 448.084 6.6154 448.528 6.16465C448.975 5.71389 449.492 5.37251 450.079 5.1405C450.669 4.90849 451.304 4.79249 451.983 4.79249C452.573 4.79249 453.121 4.877 453.629 5.04604C454.139 5.21507 454.59 5.45371 454.981 5.76195C455.375 6.07019 455.695 6.43643 455.94 6.86067C456.186 7.28491 456.338 7.75058 456.398 8.25769H453.907ZM457.958 15.1135V4.93169H465.057V6.93027H460.419V9.01834H464.694V11.0219H460.419V13.1149H465.057V15.1135H457.958ZM472.102 7.98425C472.069 7.61966 471.921 7.33628 471.659 7.13411C471.401 6.92861 471.031 6.82587 470.551 6.82587C470.232 6.82587 469.967 6.8673 469.755 6.95016C469.543 7.03302 469.384 7.14736 469.278 7.2932C469.172 7.43572 469.117 7.59978 469.114 7.78539C469.107 7.93785 469.137 8.07208 469.203 8.18808C469.273 8.30409 469.372 8.40683 469.502 8.49632C469.634 8.5825 469.793 8.65873 469.979 8.72502C470.165 8.7913 470.373 8.84931 470.605 8.89902L471.48 9.09789C471.984 9.20726 472.428 9.35309 472.813 9.53539C473.201 9.71768 473.525 9.93477 473.787 10.1867C474.052 10.4386 474.253 10.7286 474.389 11.0567C474.525 11.3848 474.594 11.7527 474.598 12.1604C474.594 12.8034 474.432 13.3552 474.11 13.8159C473.789 14.2766 473.326 14.6296 472.723 14.8749C472.123 15.1201 471.399 15.2428 470.551 15.2428C469.699 15.2428 468.956 15.1152 468.323 14.86C467.69 14.6048 467.198 14.217 466.847 13.6966C466.495 13.1762 466.315 12.5183 466.305 11.7229H468.661C468.681 12.051 468.769 12.3244 468.925 12.5432C469.081 12.7619 469.294 12.9277 469.566 13.0404C469.841 13.153 470.16 13.2094 470.521 13.2094C470.852 13.2094 471.134 13.1646 471.366 13.0752C471.601 12.9857 471.782 12.8614 471.908 12.7023C472.034 12.5432 472.098 12.3609 472.102 12.1554C472.098 11.9632 472.039 11.7991 471.923 11.6632C471.807 11.524 471.628 11.4047 471.386 11.3053C471.147 11.2025 470.842 11.1081 470.471 11.0219L469.407 10.7733C468.526 10.5711 467.831 10.2447 467.324 9.79391C466.817 9.33984 466.565 8.72667 466.568 7.95442C466.565 7.32468 466.734 6.77284 467.076 6.29888C467.417 5.82492 467.889 5.45537 468.492 5.19021C469.096 4.92506 469.783 4.79249 470.556 4.79249C471.344 4.79249 472.029 4.92672 472.609 5.19519C473.192 5.46034 473.645 5.83321 473.966 6.31379C474.288 6.79438 474.452 7.3512 474.458 7.98425H472.102Z" fill="black"/>
<path d="M433.085 44.483H431.867C431.774 44.0536 431.601 43.699 431.349 43.419C431.107 43.139 430.733 42.999 430.229 42.999C429.492 42.999 428.918 43.3583 428.507 44.077C428.106 44.7863 427.905 45.7663 427.905 47.017C428.12 46.6343 428.442 46.3216 428.871 46.079C429.31 45.8363 429.805 45.715 430.355 45.715C430.981 45.715 431.508 45.8643 431.937 46.163C432.376 46.4523 432.707 46.835 432.931 47.311C433.165 47.787 433.281 48.3003 433.281 48.851C433.281 49.439 433.16 49.9896 432.917 50.503C432.675 51.0163 432.315 51.4316 431.839 51.749C431.363 52.0663 430.78 52.225 430.089 52.225C429.445 52.225 428.904 52.0943 428.465 51.833C428.036 51.5623 427.691 51.1983 427.429 50.741C427.168 50.2743 426.981 49.747 426.869 49.159C426.757 48.571 426.701 47.9503 426.701 47.297C426.701 45.6076 427.014 44.2963 427.639 43.363C428.265 42.4296 429.156 41.963 430.313 41.963C431.069 41.963 431.685 42.1823 432.161 42.621C432.647 43.0596 432.955 43.6803 433.085 44.483ZM430.075 46.751C429.683 46.751 429.333 46.849 429.025 47.045C428.717 47.241 428.475 47.507 428.297 47.843C428.12 48.1696 428.031 48.543 428.031 48.963C428.031 49.383 428.12 49.761 428.297 50.097C428.475 50.433 428.717 50.699 429.025 50.895C429.333 51.091 429.683 51.189 430.075 51.189C430.691 51.189 431.172 50.9743 431.517 50.545C431.863 50.1156 432.035 49.5883 432.035 48.963C432.035 48.3376 431.863 47.815 431.517 47.395C431.172 46.9656 430.691 46.751 430.075 46.751ZM439.318 51.973V49.481H435.09V48.221L439.43 42.103H440.508V48.417H441.978V49.481H440.508V51.973H439.318ZM436.112 48.417H439.318V43.881L436.112 48.417ZM446.236 51.973V50.069H448.14V52.463C448.14 53.023 447.981 53.4663 447.664 53.793C447.356 54.1196 446.894 54.283 446.278 54.283H446.026V53.569H446.25C446.987 53.569 447.356 53.2143 447.356 52.505V51.973H446.236ZM453.462 42.187H458.586V43.265H454.47L454.064 46.121C454.335 45.8783 454.634 45.7103 454.96 45.617C455.287 45.5236 455.618 45.477 455.954 45.477C456.542 45.477 457.074 45.6123 457.55 45.883C458.026 46.1443 458.404 46.5223 458.684 47.017C458.964 47.5023 459.104 48.0856 459.104 48.767C459.104 49.4296 458.964 50.0223 458.684 50.545C458.414 51.0676 458.026 51.4783 457.522 51.777C457.018 52.0756 456.412 52.225 455.702 52.225C455.422 52.225 455.11 52.1876 454.764 52.113C454.419 52.0383 454.078 51.9076 453.742 51.721C453.416 51.525 453.131 51.2543 452.888 50.909C452.646 50.5636 452.487 50.1203 452.412 49.579H453.658C453.938 50.6243 454.62 51.147 455.702 51.147C456.412 51.147 456.944 50.9323 457.298 50.503C457.662 50.0643 457.844 49.5043 457.844 48.823C457.844 48.1416 457.672 47.5863 457.326 47.157C456.99 46.7276 456.463 46.513 455.744 46.513C455.352 46.513 455.002 46.5923 454.694 46.751C454.396 46.9003 454.116 47.1476 453.854 47.493H452.734L453.462 42.187ZM465.281 51.973V49.481H461.053V48.221L465.393 42.103H466.471V48.417H467.941V49.481H466.471V51.973H465.281ZM462.075 48.417H465.281V43.881L462.075 48.417ZM473.165 47.339H472.479V46.289C472.955 46.3076 473.375 46.2843 473.739 46.219C474.112 46.1536 474.402 46.0043 474.607 45.771C474.822 45.5283 474.929 45.1736 474.929 44.707C474.929 44.1563 474.761 43.741 474.425 43.461C474.098 43.181 473.678 43.041 473.165 43.041C472.54 43.041 472.064 43.209 471.737 43.545C471.42 43.8716 471.252 44.4036 471.233 45.141H470.001C470.02 44.0956 470.304 43.307 470.855 42.775C471.406 42.2336 472.176 41.963 473.165 41.963C474.052 41.963 474.775 42.187 475.335 42.635C475.895 43.083 476.175 43.7596 476.175 44.665C476.175 45.141 476.058 45.5656 475.825 45.939C475.601 46.303 475.251 46.5736 474.775 46.751C475.363 46.947 475.792 47.2456 476.063 47.647C476.334 48.0483 476.469 48.557 476.469 49.173C476.469 49.8076 476.324 50.3536 476.035 50.811C475.755 51.2683 475.363 51.6183 474.859 51.861C474.364 52.1036 473.786 52.225 473.123 52.225C471.014 52.225 469.903 51.1703 469.791 49.061H471.037C471.074 49.7423 471.261 50.2603 471.597 50.615C471.933 50.9696 472.456 51.147 473.165 51.147C473.884 51.147 474.406 50.9556 474.733 50.573C475.06 50.181 475.223 49.719 475.223 49.187C475.223 47.955 474.537 47.339 473.165 47.339ZM480.853 50.069H482.757V51.973H480.853V50.069ZM492.098 46.695C493.227 47.255 493.792 48.0716 493.792 49.145C493.792 49.7516 493.652 50.2883 493.372 50.755C493.101 51.2123 492.714 51.5716 492.21 51.833C491.715 52.0943 491.132 52.225 490.46 52.225C489.806 52.225 489.228 52.0943 488.724 51.833C488.229 51.5716 487.837 51.2123 487.548 50.755C487.268 50.2883 487.128 49.7516 487.128 49.145C487.128 48.0716 487.697 47.255 488.836 46.695C488.388 46.4243 488.047 46.1396 487.814 45.841C487.59 45.533 487.478 45.1223 487.478 44.609C487.478 44.0863 487.604 43.629 487.856 43.237C488.117 42.8356 488.472 42.523 488.92 42.299C489.377 42.075 489.89 41.963 490.46 41.963C491.057 41.963 491.575 42.075 492.014 42.299C492.462 42.523 492.812 42.8356 493.064 43.237C493.316 43.6383 493.442 44.1003 493.442 44.623C493.442 45.0896 493.344 45.4723 493.148 45.771C492.961 46.0603 492.611 46.3683 492.098 46.695ZM490.46 42.999C489.881 42.999 489.438 43.1576 489.13 43.475C488.822 43.7923 488.668 44.175 488.668 44.623C488.668 45.0523 488.817 45.4256 489.116 45.743C489.414 46.051 489.862 46.205 490.46 46.205C490.982 46.205 491.412 46.065 491.748 45.785C492.084 45.4956 492.252 45.1176 492.252 44.651C492.252 44.147 492.088 43.7456 491.762 43.447C491.444 43.1483 491.01 42.999 490.46 42.999ZM490.46 47.241C490.077 47.241 489.722 47.3203 489.396 47.479C489.069 47.6283 488.808 47.8476 488.612 48.137C488.416 48.4263 488.318 48.781 488.318 49.201C488.318 49.6023 488.411 49.9523 488.598 50.251C488.784 50.5496 489.036 50.783 489.354 50.951C489.68 51.1096 490.04 51.189 490.432 51.189C491.076 51.189 491.598 51.007 492 50.643C492.401 50.2696 492.602 49.7843 492.602 49.187C492.602 48.7576 492.504 48.403 492.308 48.123C492.112 47.8336 491.85 47.6143 491.524 47.465C491.197 47.3156 490.842 47.241 490.46 47.241ZM499.898 51.973V49.481H495.67V48.221L500.01 42.103H501.088V48.417H502.558V49.481H501.088V51.973H499.898ZM496.692 48.417H499.898V43.881L496.692 48.417Z" fill="black"/>
</svg>
