<svg width="775" height="412" viewBox="0 0 775 412" fill="none" xmlns="http://www.w3.org/2000/svg">
<rect x="419.622" y="0.5" width="176.939" height="72.4919" stroke="black"/>
<rect x="0.5" y="0.5" width="418.122" height="35.7459" stroke="black"/>
<rect x="0.5" y="37.246" width="418.122" height="109.238" stroke="black"/>
<rect x="0.5" y="147.484" width="418.122" height="35.7459" stroke="black"/>
<rect x="0.5" y="184.23" width="418.122" height="154.892" stroke="black"/>
<rect x="0.5" y="340.122" width="225.176" height="71.3784" stroke="black"/>
<rect x="226.676" y="340.122" width="123.343" height="71.3784" stroke="black"/>
<rect x="351.019" y="340.122" width="111.552" height="71.3784" stroke="black"/>
<rect x="463.571" y="340.122" width="122.271" height="71.3784" stroke="black"/>
<rect x="586.841" y="340.122" width="112.624" height="71.3784" stroke="black"/>
<path d="M17.6655 389.778L11.2308 367.96H17.836L20.8189 381.383H20.9894L24.5263 367.96H29.7252L33.2621 381.426H33.4326L36.4155 367.96H43.0206L36.586 389.778H30.9183L27.211 377.591H27.0405L23.3331 389.778H17.6655ZM44.9808 389.778V385.517L53.1201 378.784C53.6598 378.337 54.1215 377.918 54.505 377.527C54.8956 377.129 55.1939 376.721 55.3999 376.302C55.6129 375.883 55.7195 375.418 55.7195 374.906C55.7195 374.345 55.5987 373.866 55.3573 373.468C55.1229 373.07 54.7962 372.765 54.3772 372.552C53.9581 372.332 53.4752 372.222 52.9283 372.222C52.3814 372.222 51.8985 372.332 51.4794 372.552C51.0675 372.772 50.7479 373.095 50.5206 373.521C50.2933 373.947 50.1797 374.466 50.1797 375.077H44.5547C44.5547 373.543 44.8992 372.222 45.5881 371.114C46.277 370.006 47.25 369.153 48.5071 368.557C49.7642 367.96 51.2379 367.662 52.9283 367.662C54.6754 367.662 56.1882 367.942 57.4666 368.504C58.7522 369.058 59.7429 369.839 60.4389 370.847C61.1421 371.856 61.4936 373.038 61.4936 374.395C61.4936 375.233 61.3196 376.067 60.9716 376.898C60.6236 377.722 59.9986 378.635 59.0966 379.636C58.1946 380.638 56.9127 381.831 55.2507 383.216L53.2053 384.92V385.048H61.728V389.778H44.9808Z" fill="black"/>
<rect x="700.465" y="340.122" width="74.0346" height="71.3784" stroke="black"/>
<rect x="419.622" y="73.9919" width="176.939" height="72.4919" stroke="black"/>
<rect x="419.622" y="220.976" width="176.939" height="35.7459" stroke="black"/>
<rect x="419.622" y="294.468" width="176.939" height="44.6541" stroke="black"/>
<rect x="419.622" y="147.484" width="176.939" height="72.4919" stroke="black"/>
<rect x="419.622" y="257.722" width="176.939" height="35.7459" stroke="black"/>
<rect x="597.561" y="0.5" width="176.939" height="72.4919" stroke="black"/>
<rect x="597.561" y="73.9919" width="176.939" height="72.4919" stroke="black"/>
<rect x="597.561" y="220.976" width="176.939" height="35.7459" stroke="black"/>
<rect x="597.561" y="294.468" width="176.939" height="44.6541" stroke="black"/>
<rect x="597.561" y="147.484" width="176.939" height="72.4919" stroke="black"/>
<rect x="597.561" y="257.722" width="176.939" height="35.7459" stroke="black"/>
<path d="M425.549 15.1136L422.586 4.93174H425.306L426.842 11.6036H426.926L428.681 4.93174H430.899L432.654 11.6185H432.738L434.279 4.93174H436.994L434.036 15.1136H431.664L429.83 8.93884H429.75L427.916 15.1136H425.549ZM439.106 15.1136H436.461L439.896 4.93174H443.172L446.608 15.1136H443.963L441.571 7.49708H441.492L439.106 15.1136ZM438.753 11.1065H444.281V12.9758H438.753V11.1065ZM453.907 8.25773C453.851 8.04893 453.768 7.86498 453.659 7.70589C453.549 7.54348 453.415 7.40593 453.256 7.29324C453.097 7.18055 452.915 7.09604 452.709 7.03969C452.504 6.98003 452.278 6.9502 452.033 6.9502C451.539 6.9502 451.112 7.06952 450.75 7.30816C450.392 7.54679 450.116 7.89481 449.92 8.35219C449.724 8.80626 449.627 9.35811 449.627 10.0077C449.627 10.6607 449.721 11.2175 449.91 11.6782C450.099 12.1389 450.372 12.4902 450.73 12.7322C451.088 12.9741 451.523 13.0951 452.033 13.0951C452.484 13.0951 452.865 13.0222 453.176 12.8763C453.491 12.7272 453.73 12.5167 453.892 12.2449C454.055 11.9732 454.136 11.6533 454.136 11.2854L454.593 11.3401H452.117V9.54537H456.507V10.8927C456.507 11.8041 456.313 12.5847 455.926 13.2343C455.541 13.8839 455.011 14.3827 454.335 14.7307C453.662 15.0788 452.888 15.2528 452.013 15.2528C451.042 15.2528 450.188 15.0423 449.453 14.6214C448.717 14.2004 448.144 13.6005 447.733 12.8217C447.322 12.0395 447.116 11.1114 447.116 10.0376C447.116 9.20233 447.24 8.46157 447.489 7.81526C447.738 7.16564 448.084 6.61545 448.528 6.16469C448.975 5.71393 449.492 5.37255 450.079 5.14054C450.669 4.90854 451.304 4.79253 451.983 4.79253C452.573 4.79253 453.122 4.87705 453.629 5.04608C454.139 5.21512 454.59 5.45375 454.981 5.76199C455.376 6.07023 455.695 6.43647 455.941 6.86072C456.186 7.28496 456.338 7.75063 456.398 8.25773H453.907ZM457.958 15.1136V4.93174H465.057V6.93032H460.419V9.01839H464.694V11.0219H460.419V13.115H465.057V15.1136H457.958ZM472.102 7.98429C472.069 7.61971 471.921 7.33633 471.66 7.13415C471.401 6.92866 471.031 6.82591 470.551 6.82591C470.233 6.82591 469.968 6.86734 469.755 6.9502C469.543 7.03306 469.384 7.14741 469.278 7.29324C469.172 7.43576 469.117 7.59982 469.114 7.78543C469.107 7.93789 469.137 8.07213 469.204 8.18813C469.273 8.30413 469.373 8.40688 469.502 8.49637C469.634 8.58254 469.794 8.65877 469.979 8.72506C470.165 8.79135 470.374 8.84935 470.606 8.89907L471.481 9.09793C471.984 9.20731 472.428 9.35314 472.813 9.53543C473.201 9.71772 473.526 9.93482 473.787 10.1867C474.053 10.4386 474.253 10.7286 474.389 11.0567C474.525 11.3849 474.594 11.7528 474.598 12.1604C474.594 12.8034 474.432 13.3553 474.111 13.816C473.789 14.2767 473.327 14.6297 472.723 14.8749C472.124 15.1202 471.399 15.2428 470.551 15.2428C469.699 15.2428 468.957 15.1152 468.324 14.86C467.691 14.6048 467.198 14.217 466.847 13.6967C466.496 13.1763 466.315 12.5184 466.305 11.7229H468.662C468.682 12.0511 468.769 12.3245 468.925 12.5432C469.081 12.762 469.295 12.9277 469.567 13.0404C469.842 13.1531 470.16 13.2094 470.521 13.2094C470.853 13.2094 471.134 13.1647 471.366 13.0752C471.602 12.9857 471.782 12.8614 471.908 12.7023C472.034 12.5432 472.099 12.361 472.102 12.1555C472.099 11.9632 472.039 11.7992 471.923 11.6633C471.807 11.5241 471.628 11.4047 471.386 11.3053C471.147 11.2026 470.843 11.1081 470.471 11.0219L469.407 10.7734C468.526 10.5712 467.831 10.2447 467.324 9.79395C466.817 9.33988 466.565 8.72672 466.569 7.95447C466.565 7.32473 466.734 6.77288 467.076 6.29892C467.417 5.82497 467.889 5.45541 468.493 5.19026C469.096 4.92511 469.784 4.79253 470.556 4.79253C471.345 4.79253 472.029 4.92677 472.609 5.19523C473.192 5.46038 473.645 5.83325 473.966 6.31384C474.288 6.79443 474.452 7.35124 474.459 7.98429H472.102Z" fill="black"/>
<path d="M450.161 51.973V44.875H447.543V43.951C448.122 43.923 448.579 43.8856 448.915 43.839C449.261 43.7923 449.527 43.7083 449.713 43.587C449.9 43.4656 450.045 43.2883 450.147 43.055C450.259 42.8123 450.367 42.4856 450.469 42.075H451.393V51.973H450.161ZM458.914 47.339H458.228V46.289C458.704 46.3076 459.124 46.2843 459.488 46.219C459.861 46.1536 460.15 46.0043 460.356 45.771C460.57 45.5283 460.678 45.1736 460.678 44.707C460.678 44.1563 460.51 43.741 460.174 43.461C459.847 43.181 459.427 43.041 458.914 43.041C458.288 43.041 457.812 43.209 457.486 43.545C457.168 43.8716 457 44.4036 456.982 45.141H455.75C455.768 44.0956 456.053 43.307 456.604 42.775C457.154 42.2336 457.924 41.963 458.914 41.963C459.8 41.963 460.524 42.187 461.084 42.635C461.644 43.083 461.924 43.7596 461.924 44.665C461.924 45.141 461.807 45.5656 461.574 45.939C461.35 46.303 461 46.5736 460.524 46.751C461.112 46.947 461.541 47.2456 461.812 47.647C462.082 48.0483 462.218 48.557 462.218 49.173C462.218 49.8076 462.073 50.3536 461.784 50.811C461.504 51.2683 461.112 51.6183 460.608 51.861C460.113 52.1036 459.534 52.225 458.872 52.225C456.762 52.225 455.652 51.1703 455.54 49.061H456.786C456.823 49.7423 457.01 50.2603 457.346 50.615C457.682 50.9696 458.204 51.147 458.914 51.147C459.632 51.147 460.155 50.9556 460.482 50.573C460.808 50.181 460.972 49.719 460.972 49.187C460.972 47.955 460.286 47.339 458.914 47.339ZM466.602 51.973V50.069H468.506V52.463C468.506 53.023 468.347 53.4663 468.03 53.793C467.722 54.1196 467.26 54.283 466.644 54.283H466.392V53.569H466.616C467.353 53.569 467.722 53.2143 467.722 52.505V51.973H466.602ZM476.992 51.973V49.481H472.764V48.221L477.104 42.103H478.182V48.417H479.652V49.481H478.182V51.973H476.992ZM473.786 48.417H476.992V43.881L473.786 48.417ZM482.483 42.187H487.607V43.265H483.491L483.085 46.121C483.355 45.8783 483.654 45.7103 483.981 45.617C484.307 45.5236 484.639 45.477 484.975 45.477C485.563 45.477 486.095 45.6123 486.571 45.883C487.047 46.1443 487.425 46.5223 487.705 47.017C487.985 47.5023 488.125 48.0856 488.125 48.767C488.125 49.4296 487.985 50.0223 487.705 50.545C487.434 51.0676 487.047 51.4783 486.543 51.777C486.039 52.0756 485.432 52.225 484.723 52.225C484.443 52.225 484.13 52.1876 483.785 52.113C483.439 52.0383 483.099 51.9076 482.763 51.721C482.436 51.525 482.151 51.2543 481.909 50.909C481.666 50.5636 481.507 50.1203 481.433 49.579H482.679C482.959 50.6243 483.64 51.147 484.723 51.147C485.432 51.147 485.964 50.9323 486.319 50.503C486.683 50.0643 486.865 49.5043 486.865 48.823C486.865 48.1416 486.692 47.5863 486.347 47.157C486.011 46.7276 485.483 46.513 484.765 46.513C484.373 46.513 484.023 46.5923 483.715 46.751C483.416 46.9003 483.136 47.1476 482.875 47.493H481.755L482.483 42.187ZM495.155 46.695C496.284 47.255 496.849 48.0716 496.849 49.145C496.849 49.7516 496.709 50.2883 496.429 50.755C496.158 51.2123 495.771 51.5716 495.267 51.833C494.772 52.0943 494.189 52.225 493.517 52.225C492.864 52.225 492.285 52.0943 491.781 51.833C491.286 51.5716 490.894 51.2123 490.605 50.755C490.325 50.2883 490.185 49.7516 490.185 49.145C490.185 48.0716 490.754 47.255 491.893 46.695C491.445 46.4243 491.104 46.1396 490.871 45.841C490.647 45.533 490.535 45.1223 490.535 44.609C490.535 44.0863 490.661 43.629 490.913 43.237C491.174 42.8356 491.529 42.523 491.977 42.299C492.434 42.075 492.948 41.963 493.517 41.963C494.114 41.963 494.632 42.075 495.071 42.299C495.519 42.523 495.869 42.8356 496.121 43.237C496.373 43.6383 496.499 44.1003 496.499 44.623C496.499 45.0896 496.401 45.4723 496.205 45.771C496.018 46.0603 495.668 46.3683 495.155 46.695ZM493.517 42.999C492.938 42.999 492.495 43.1576 492.187 43.475C491.879 43.7923 491.725 44.175 491.725 44.623C491.725 45.0523 491.874 45.4256 492.173 45.743C492.472 46.051 492.92 46.205 493.517 46.205C494.04 46.205 494.469 46.065 494.805 45.785C495.141 45.4956 495.309 45.1176 495.309 44.651C495.309 44.147 495.146 43.7456 494.819 43.447C494.502 43.1483 494.068 42.999 493.517 42.999ZM493.517 47.241C493.134 47.241 492.78 47.3203 492.453 47.479C492.126 47.6283 491.865 47.8476 491.669 48.137C491.473 48.4263 491.375 48.781 491.375 49.201C491.375 49.6023 491.468 49.9523 491.655 50.251C491.842 50.5496 492.094 50.783 492.411 50.951C492.738 51.1096 493.097 51.189 493.489 51.189C494.133 51.189 494.656 51.007 495.057 50.643C495.458 50.2696 495.659 49.7843 495.659 49.187C495.659 48.7576 495.561 48.403 495.365 48.123C495.169 47.8336 494.908 47.6143 494.581 47.465C494.254 47.3156 493.9 47.241 493.517 47.241ZM501.219 50.069H503.123V51.973H501.219V50.069ZM514.102 50.895V51.973H507.494C507.55 51.2076 507.666 50.573 507.844 50.069C508.021 49.5556 508.301 49.1076 508.684 48.725C509.076 48.3423 509.608 47.969 510.28 47.605L511.582 46.891C512.02 46.6483 512.352 46.3683 512.576 46.051C512.8 45.7243 512.912 45.3463 512.912 44.917C512.912 44.3663 512.762 43.9183 512.464 43.573C512.165 43.2183 511.703 43.041 511.078 43.041C510.359 43.041 509.836 43.265 509.51 43.713C509.183 44.161 508.996 44.7443 508.95 45.463H507.718C507.755 44.343 508.054 43.4796 508.614 42.873C509.183 42.2663 510.018 41.963 511.12 41.963C511.792 41.963 512.352 42.0983 512.8 42.369C513.257 42.6303 513.598 42.985 513.822 43.433C514.055 43.8716 514.172 44.3663 514.172 44.917C514.172 46.1676 513.476 47.1616 512.086 47.899L510.686 48.641C510.098 48.9583 509.659 49.299 509.37 49.663C509.09 50.0176 508.926 50.4283 508.88 50.895H514.102ZM519.396 51.973V44.875H516.778V43.951C517.356 43.923 517.814 43.8856 518.15 43.839C518.495 43.7923 518.761 43.7083 518.948 43.587C519.134 43.4656 519.279 43.2883 519.382 43.055C519.494 42.8123 519.601 42.4856 519.704 42.075H520.628V51.973H519.396Z" fill="black"/>
</svg>
