<svg width="777" height="415" viewBox="0 0 777 415" fill="none" xmlns="http://www.w3.org/2000/svg">
<rect x="420.703" y="0.5" width="177.398" height="73.027" fill="#D9D9D9" stroke="black"/>
<rect x="0.5" y="0.5" width="419.203" height="36.0135" fill="#D9D9D9" stroke="black"/>
<rect x="0.5" y="37.5135" width="419.203" height="110.041" fill="#D9D9D9" stroke="black"/>
<rect x="0.5" y="148.554" width="419.203" height="36.0135" fill="#D9D9D9" stroke="black"/>
<rect x="0.5" y="185.568" width="419.203" height="156.027" fill="#D9D9D9" stroke="black"/>
<rect x="0.5" y="342.595" width="225.759" height="71.9054" fill="#D9D9D9" stroke="black"/>
<rect x="227.259" y="342.595" width="123.664" height="71.9054" fill="#D9D9D9" stroke="black"/>
<rect x="351.923" y="342.595" width="111.842" height="71.9054" fill="#D9D9D9" stroke="black"/>
<rect x="464.766" y="342.595" width="122.589" height="71.9054" fill="#D9D9D9" stroke="black"/>
<rect x="588.354" y="342.595" width="112.917" height="71.9054" fill="#D9D9D9" stroke="black"/>
<path d="M17.6931 392.405L11.2584 370.587H17.8635L20.8465 384.011H21.017L24.5539 370.587H29.7528L33.2897 384.053H33.4601L36.4431 370.587H43.0482L36.6135 392.405H30.9459L27.2385 380.218H27.0681L23.3607 392.405H17.6931ZM45.0084 392.405V388.144L53.1476 381.411C53.6874 380.964 54.1491 380.545 54.5326 380.154C54.9232 379.756 55.2215 379.348 55.4275 378.929C55.6405 378.51 55.7471 378.045 55.7471 377.533C55.7471 376.972 55.6263 376.493 55.3849 376.095C55.1505 375.697 54.8238 375.392 54.4047 375.179C53.9857 374.959 53.5028 374.849 52.9559 374.849C52.409 374.849 51.926 374.959 51.507 375.179C51.0951 375.399 50.7755 375.722 50.5482 376.148C50.3209 376.574 50.2073 377.093 50.2073 377.704H44.5823C44.5823 376.17 44.9268 374.849 45.6157 373.741C46.3046 372.633 47.2776 371.78 48.5347 371.184C49.7918 370.587 51.2655 370.289 52.9559 370.289C54.703 370.289 56.2158 370.569 57.4942 371.131C58.7797 371.685 59.7705 372.466 60.4665 373.474C61.1697 374.483 61.5212 375.665 61.5212 377.022C61.5212 377.86 61.3472 378.694 60.9992 379.525C60.6512 380.349 60.0262 381.262 59.1242 382.263C58.2222 383.265 56.9403 384.458 55.2783 385.843L53.2329 387.547V387.675H61.7556V392.405H45.0084Z" fill="black"/>
<rect x="702.272" y="342.595" width="74.2282" height="71.9054" fill="#D9D9D9" stroke="black"/>
<rect x="420.703" y="74.527" width="177.398" height="73.027" fill="#D9D9D9" stroke="black"/>
<rect x="420.703" y="222.581" width="177.398" height="36.0135" fill="#D9D9D9" stroke="black"/>
<rect x="420.703" y="296.608" width="177.398" height="44.9865" fill="#D9D9D9" stroke="black"/>
<rect x="420.703" y="148.554" width="177.398" height="73.027" fill="#D9D9D9" stroke="black"/>
<rect x="420.703" y="259.595" width="177.398" height="36.0135" fill="#D9D9D9" stroke="black"/>
<rect x="599.102" y="0.5" width="177.398" height="73.027" fill="#D9D9D9" stroke="black"/>
<rect x="599.102" y="74.527" width="177.398" height="73.027" fill="#D9D9D9" stroke="black"/>
<rect x="599.102" y="222.581" width="177.398" height="36.0135" fill="#D9D9D9" stroke="black"/>
<rect x="599.102" y="296.608" width="177.398" height="44.9865" fill="#D9D9D9" stroke="black"/>
<rect x="599.102" y="148.554" width="177.398" height="73.027" fill="#D9D9D9" stroke="black"/>
<rect x="599.102" y="259.595" width="177.398" height="36.0135" fill="#D9D9D9" stroke="black"/>
<path d="M426.639 15.1216L423.676 4.93982H426.396L427.932 11.6117H428.016L429.771 4.93982H431.989L433.744 11.6266H433.828L435.369 4.93982H438.084L435.126 15.1216H432.754L430.92 8.94693H430.84L429.006 15.1216H426.639ZM440.195 15.1216H437.551L440.986 4.93982H444.262L447.698 15.1216H445.053L442.661 7.50517H442.582L440.195 15.1216ZM439.842 11.1145H445.371V12.9839H439.842V11.1145ZM454.997 8.26582C454.941 8.05701 454.858 7.87306 454.749 7.71397C454.639 7.55157 454.505 7.41402 454.346 7.30133C454.187 7.18864 454.004 7.10412 453.799 7.04778C453.593 6.98812 453.368 6.95829 453.123 6.95829C452.629 6.95829 452.201 7.07761 451.84 7.31624C451.482 7.55488 451.205 7.90289 451.01 8.36028C450.814 8.81435 450.717 9.3662 450.717 10.0158C450.717 10.6688 450.811 11.2256 451 11.6863C451.189 12.147 451.462 12.4983 451.82 12.7403C452.178 12.9822 452.612 13.1032 453.123 13.1032C453.574 13.1032 453.955 13.0303 454.266 12.8844C454.581 12.7353 454.82 12.5248 454.982 12.253C455.145 11.9813 455.226 11.6614 455.226 11.2935L455.683 11.3482H453.207V9.55346H457.597V10.9008C457.597 11.8122 457.403 12.5928 457.016 13.2424C456.631 13.892 456.101 14.3908 455.425 14.7388C454.752 15.0868 453.978 15.2608 453.103 15.2608C452.132 15.2608 451.278 15.0504 450.543 14.6295C449.807 14.2085 449.233 13.6086 448.822 12.8297C448.411 12.0475 448.206 11.1195 448.206 10.0456C448.206 9.21042 448.33 8.46965 448.579 7.82335C448.827 7.17373 449.174 6.62354 449.618 6.17278C450.065 5.72202 450.582 5.38064 451.169 5.14863C451.759 4.91662 452.394 4.80062 453.073 4.80062C453.663 4.80062 454.212 4.88514 454.719 5.05417C455.229 5.22321 455.68 5.46184 456.071 5.77008C456.465 6.07832 456.785 6.44456 457.03 6.8688C457.276 7.29304 457.428 7.75872 457.488 8.26582H454.997ZM459.048 15.1216V4.93982H466.147V6.9384H461.509V9.02647H465.784V11.03H461.509V13.1231H466.147V15.1216H459.048ZM473.192 7.99238C473.159 7.6278 473.011 7.34442 472.749 7.14224C472.491 6.93675 472.121 6.834 471.641 6.834C471.323 6.834 471.057 6.87543 470.845 6.95829C470.633 7.04115 470.474 7.1555 470.368 7.30133C470.262 7.44385 470.207 7.60791 470.204 7.79352C470.197 7.94598 470.227 8.08021 470.293 8.19622C470.363 8.31222 470.462 8.41497 470.592 8.50446C470.724 8.59063 470.883 8.66686 471.069 8.73315C471.255 8.79944 471.463 8.85744 471.695 8.90715L472.57 9.10602C473.074 9.21539 473.518 9.36123 473.903 9.54352C474.291 9.72581 474.615 9.9429 474.877 10.1948C475.142 10.4467 475.343 10.7367 475.479 11.0648C475.615 11.3929 475.684 11.7608 475.688 12.1685C475.684 12.8115 475.522 13.3634 475.2 13.8241C474.879 14.2848 474.417 14.6377 473.813 14.883C473.213 15.1283 472.489 15.2509 471.641 15.2509C470.789 15.2509 470.047 15.1233 469.413 14.8681C468.78 14.6129 468.288 14.2251 467.937 13.7047C467.586 13.1844 467.405 12.5265 467.395 11.731H469.752C469.771 12.0591 469.859 12.3326 470.015 12.5513C470.171 12.7701 470.385 12.9358 470.656 13.0485C470.931 13.1612 471.25 13.2175 471.611 13.2175C471.942 13.2175 472.224 13.1728 472.456 13.0833C472.691 12.9938 472.872 12.8695 472.998 12.7104C473.124 12.5513 473.189 12.369 473.192 12.1635C473.189 11.9713 473.129 11.8072 473.013 11.6714C472.897 11.5322 472.718 11.4128 472.476 11.3134C472.237 11.2107 471.932 11.1162 471.561 11.03L470.497 10.7814C469.616 10.5793 468.921 10.2528 468.414 9.80204C467.907 9.34797 467.655 8.73481 467.658 7.96255C467.655 7.33282 467.824 6.78097 468.166 6.30701C468.507 5.83305 468.979 5.4635 469.582 5.19835C470.186 4.9332 470.873 4.80062 471.646 4.80062C472.435 4.80062 473.119 4.93485 473.699 5.20332C474.282 5.46847 474.735 5.84134 475.056 6.32193C475.378 6.80251 475.542 7.35933 475.548 7.99238H473.192Z" fill="black"/>
<path d="M451.312 52.2567V45.1587H448.694V44.2347C449.273 44.2067 449.73 44.1694 450.066 44.1227C450.412 44.0761 450.678 43.9921 450.864 43.8707C451.051 43.7494 451.196 43.5721 451.298 43.3387C451.41 43.0961 451.518 42.7694 451.62 42.3587H452.544V52.2567H451.312ZM460.065 47.6227H459.379V46.5727C459.855 46.5914 460.275 46.5681 460.639 46.5027C461.012 46.4374 461.301 46.2881 461.507 46.0547C461.721 45.8121 461.829 45.4574 461.829 44.9907C461.829 44.4401 461.661 44.0247 461.325 43.7447C460.998 43.4647 460.578 43.3247 460.065 43.3247C459.439 43.3247 458.963 43.4927 458.637 43.8287C458.319 44.1554 458.151 44.6874 458.133 45.4247H456.901C456.919 44.3794 457.204 43.5907 457.755 43.0587C458.305 42.5174 459.075 42.2467 460.065 42.2467C460.951 42.2467 461.675 42.4707 462.235 42.9187C462.795 43.3667 463.075 44.0434 463.075 44.9487C463.075 45.4247 462.958 45.8494 462.725 46.2227C462.501 46.5867 462.151 46.8574 461.675 47.0347C462.263 47.2307 462.692 47.5294 462.963 47.9307C463.233 48.3321 463.369 48.8407 463.369 49.4567C463.369 50.0914 463.224 50.6374 462.935 51.0947C462.655 51.5521 462.263 51.9021 461.759 52.1447C461.264 52.3874 460.685 52.5087 460.023 52.5087C457.913 52.5087 456.803 51.4541 456.691 49.3447H457.937C457.974 50.0261 458.161 50.5441 458.497 50.8987C458.833 51.2534 459.355 51.4307 460.065 51.4307C460.783 51.4307 461.306 51.2394 461.633 50.8567C461.959 50.4647 462.123 50.0027 462.123 49.4707C462.123 48.2387 461.437 47.6227 460.065 47.6227ZM467.753 52.2567V50.3527H469.657V52.7467C469.657 53.3067 469.498 53.7501 469.181 54.0767C468.873 54.4034 468.411 54.5667 467.795 54.5667H467.543V53.8527H467.767C468.504 53.8527 468.873 53.4981 468.873 52.7887V52.2567H467.753ZM478.143 52.2567V49.7647H473.915V48.5047L478.255 42.3867H479.333V48.7007H480.803V49.7647H479.333V52.2567H478.143ZM474.937 48.7007H478.143V44.1647L474.937 48.7007ZM483.634 42.4707H488.757V43.5487H484.642L484.236 46.4047C484.506 46.1621 484.805 45.9941 485.132 45.9007C485.458 45.8074 485.79 45.7607 486.126 45.7607C486.714 45.7607 487.246 45.8961 487.722 46.1667C488.198 46.4281 488.576 46.8061 488.856 47.3007C489.136 47.7861 489.276 48.3694 489.276 49.0507C489.276 49.7134 489.136 50.3061 488.856 50.8287C488.585 51.3514 488.198 51.7621 487.694 52.0607C487.19 52.3594 486.583 52.5087 485.874 52.5087C485.594 52.5087 485.281 52.4714 484.936 52.3967C484.59 52.3221 484.25 52.1914 483.914 52.0047C483.587 51.8087 483.302 51.5381 483.06 51.1927C482.817 50.8474 482.658 50.4041 482.584 49.8627H483.83C484.11 50.9081 484.791 51.4307 485.874 51.4307C486.583 51.4307 487.115 51.2161 487.47 50.7867C487.834 50.3481 488.016 49.7881 488.016 49.1067C488.016 48.4254 487.843 47.8701 487.498 47.4407C487.162 47.0114 486.634 46.7967 485.916 46.7967C485.524 46.7967 485.174 46.8761 484.866 47.0347C484.567 47.1841 484.287 47.4314 484.026 47.7767H482.906L483.634 42.4707ZM496.306 46.9787C497.435 47.5387 498 48.3554 498 49.4287C498 50.0354 497.86 50.5721 497.58 51.0387C497.309 51.4961 496.922 51.8554 496.418 52.1167C495.923 52.3781 495.34 52.5087 494.668 52.5087C494.014 52.5087 493.436 52.3781 492.932 52.1167C492.437 51.8554 492.045 51.4961 491.756 51.0387C491.476 50.5721 491.336 50.0354 491.336 49.4287C491.336 48.3554 491.905 47.5387 493.044 46.9787C492.596 46.7081 492.255 46.4234 492.022 46.1247C491.798 45.8167 491.686 45.4061 491.686 44.8927C491.686 44.3701 491.812 43.9127 492.064 43.5207C492.325 43.1194 492.68 42.8067 493.128 42.5827C493.585 42.3587 494.098 42.2467 494.668 42.2467C495.265 42.2467 495.783 42.3587 496.222 42.5827C496.67 42.8067 497.02 43.1194 497.272 43.5207C497.524 43.9221 497.65 44.3841 497.65 44.9067C497.65 45.3734 497.552 45.7561 497.356 46.0547C497.169 46.3441 496.819 46.6521 496.306 46.9787ZM494.668 43.2827C494.089 43.2827 493.646 43.4414 493.338 43.7587C493.03 44.0761 492.876 44.4587 492.876 44.9067C492.876 45.3361 493.025 45.7094 493.324 46.0267C493.622 46.3347 494.07 46.4887 494.668 46.4887C495.19 46.4887 495.62 46.3487 495.956 46.0687C496.292 45.7794 496.46 45.4014 496.46 44.9347C496.46 44.4307 496.296 44.0294 495.97 43.7307C495.652 43.4321 495.218 43.2827 494.668 43.2827ZM494.668 47.5247C494.285 47.5247 493.93 47.6041 493.604 47.7627C493.277 47.9121 493.016 48.1314 492.82 48.4207C492.624 48.7101 492.526 49.0647 492.526 49.4847C492.526 49.8861 492.619 50.2361 492.806 50.5347C492.992 50.8334 493.244 51.0667 493.562 51.2347C493.888 51.3934 494.248 51.4727 494.64 51.4727C495.284 51.4727 495.806 51.2907 496.208 50.9267C496.609 50.5534 496.81 50.0681 496.81 49.4707C496.81 49.0414 496.712 48.6867 496.516 48.4067C496.32 48.1174 496.058 47.8981 495.732 47.7487C495.405 47.5994 495.05 47.5247 494.668 47.5247ZM502.37 50.3527H504.274V52.2567H502.37V50.3527ZM515.252 51.1787V52.2567H508.644C508.7 51.4914 508.817 50.8567 508.994 50.3527C509.172 49.8394 509.452 49.3914 509.834 49.0087C510.226 48.6261 510.758 48.2527 511.43 47.8887L512.732 47.1747C513.171 46.9321 513.502 46.6521 513.726 46.3347C513.95 46.0081 514.062 45.6301 514.062 45.2007C514.062 44.6501 513.913 44.2021 513.614 43.8567C513.316 43.5021 512.854 43.3247 512.228 43.3247C511.51 43.3247 510.987 43.5487 510.66 43.9967C510.334 44.4447 510.147 45.0281 510.1 45.7467H508.868C508.906 44.6267 509.204 43.7634 509.764 43.1567C510.334 42.5501 511.169 42.2467 512.27 42.2467C512.942 42.2467 513.502 42.3821 513.95 42.6527C514.408 42.9141 514.748 43.2687 514.972 43.7167C515.206 44.1554 515.322 44.6501 515.322 45.2007C515.322 46.4514 514.627 47.4454 513.236 48.1827L511.836 48.9247C511.248 49.2421 510.81 49.5827 510.52 49.9467C510.24 50.3014 510.077 50.7121 510.03 51.1787H515.252ZM520.547 52.2567V45.1587H517.929V44.2347C518.507 44.2067 518.965 44.1694 519.301 44.1227C519.646 44.0761 519.912 43.9921 520.099 43.8707C520.285 43.7494 520.43 43.5721 520.533 43.3387C520.645 43.0961 520.752 42.7694 520.855 42.3587H521.779V52.2567H520.547Z" fill="black"/>
</svg>
